<mxfile host="app.diagrams.net" modified="2022-05-15T06:57:33.281Z" agent="5.0 (Windows NT 10.0; Win64; x64) AppleWebKit/537.36 (KHTML, like Gecko) Chrome/101.0.4951.54 Safari/537.36" etag="ec1x3rnpSAoxkeCi0vGz" version="18.0.3" type="github" pages="7">
  <diagram id="jOLiMJiAWf5GIvNFF9FP" name="Page-1">
    <mxGraphModel dx="1278" dy="585" grid="1" gridSize="10" guides="1" tooltips="1" connect="1" arrows="1" fold="1" page="1" pageScale="1" pageWidth="827" pageHeight="1169" math="0" shadow="0">
      <root>
        <mxCell id="0" />
        <mxCell id="1" parent="0" />
        <mxCell id="xwFcN-blnOtsRmMzOvvE-4" value="浏&#xa;&#xa;&#xa;&#xa;览&#xa;&#xa;&#xa;&#xa;&#xa;器" style="points=[];perimeter=orthogonalPerimeter;spacingTop=0;spacing=1;verticalAlign=middle;horizontal=1;direction=west;labelPosition=center;verticalLabelPosition=middle;align=center;" parent="1" vertex="1">
          <mxGeometry x="60" y="190" width="30" height="380" as="geometry" />
        </mxCell>
        <mxCell id="xwFcN-blnOtsRmMzOvvE-11" value="用户" style="shape=umlLifeline;participant=umlActor;perimeter=lifelinePerimeter;whiteSpace=wrap;html=1;container=1;collapsible=0;recursiveResize=0;verticalAlign=top;spacingTop=36;outlineConnect=0;" parent="1" vertex="1">
          <mxGeometry x="60" y="90" width="30" height="100" as="geometry" />
        </mxCell>
        <mxCell id="xwFcN-blnOtsRmMzOvvE-14" value="UserControl" style="shape=umlLifeline;perimeter=lifelinePerimeter;whiteSpace=wrap;html=1;container=1;collapsible=0;recursiveResize=0;outlineConnect=0;" parent="1" vertex="1">
          <mxGeometry x="160" y="100" width="100" height="100" as="geometry" />
        </mxCell>
        <mxCell id="xwFcN-blnOtsRmMzOvvE-23" value="" style="points=[];perimeter=orthogonalPerimeter;spacingTop=0;spacing=1;verticalAlign=middle;horizontal=1;direction=west;labelPosition=center;verticalLabelPosition=middle;align=center;" parent="1" vertex="1">
          <mxGeometry x="195" y="200" width="30" height="70" as="geometry" />
        </mxCell>
        <mxCell id="xwFcN-blnOtsRmMzOvvE-24" value="&lt;font style=&quot;vertical-align: inherit;&quot;&gt;&lt;font style=&quot;vertical-align: inherit;&quot;&gt;&lt;font style=&quot;vertical-align: inherit;&quot;&gt;&lt;font style=&quot;vertical-align: inherit;&quot;&gt;1. 用户提交账号、&lt;br&gt;密码和验证码&lt;/font&gt;&lt;/font&gt;&lt;/font&gt;&lt;/font&gt;" style="html=1;verticalAlign=bottom;endArrow=block;rounded=0;elbow=vertical;spacingTop=3;" parent="1" target="xwFcN-blnOtsRmMzOvvE-23" edge="1">
          <mxGeometry x="-0.0722" y="10" width="80" relative="1" as="geometry">
            <mxPoint x="90" y="239.5" as="sourcePoint" />
            <mxPoint x="229.5" y="200" as="targetPoint" />
            <mxPoint y="1" as="offset" />
          </mxGeometry>
        </mxCell>
        <mxCell id="xwFcN-blnOtsRmMzOvvE-25" value="&lt;font style=&quot;vertical-align: inherit;&quot;&gt;&lt;font style=&quot;vertical-align: inherit;&quot;&gt;&lt;font style=&quot;vertical-align: inherit;&quot;&gt;&lt;font style=&quot;vertical-align: inherit;&quot;&gt;UserServiceImpl&lt;/font&gt;&lt;/font&gt;&lt;/font&gt;&lt;/font&gt;" style="shape=umlLifeline;perimeter=lifelinePerimeter;whiteSpace=wrap;html=1;container=1;collapsible=0;recursiveResize=0;outlineConnect=0;" parent="1" vertex="1">
          <mxGeometry x="314" y="100" width="100" height="100" as="geometry" />
        </mxCell>
        <mxCell id="xwFcN-blnOtsRmMzOvvE-26" value="" style="points=[];perimeter=orthogonalPerimeter;spacingTop=0;spacing=1;verticalAlign=middle;horizontal=1;direction=west;labelPosition=center;verticalLabelPosition=middle;align=center;" parent="1" vertex="1">
          <mxGeometry x="349" y="200" width="30" height="330" as="geometry" />
        </mxCell>
        <mxCell id="xwFcN-blnOtsRmMzOvvE-30" value="2. 系统传递登录&lt;br&gt;信息" style="html=1;verticalAlign=bottom;endArrow=block;rounded=0;elbow=vertical;" parent="1" source="xwFcN-blnOtsRmMzOvvE-23" target="xwFcN-blnOtsRmMzOvvE-26" edge="1">
          <mxGeometry x="0.0484" width="80" relative="1" as="geometry">
            <mxPoint x="314" y="260" as="sourcePoint" />
            <mxPoint x="470" y="260" as="targetPoint" />
            <Array as="points">
              <mxPoint x="260" y="250" />
            </Array>
            <mxPoint as="offset" />
          </mxGeometry>
        </mxCell>
        <mxCell id="xwFcN-blnOtsRmMzOvvE-32" value="3. 返回验证码错误" style="html=1;verticalAlign=bottom;endArrow=open;dashed=1;endSize=8;rounded=0;elbow=vertical;" parent="1" target="xwFcN-blnOtsRmMzOvvE-4" edge="1">
          <mxGeometry x="-0.0124" relative="1" as="geometry">
            <mxPoint x="350" y="300" as="sourcePoint" />
            <mxPoint x="110" y="304" as="targetPoint" />
            <Array as="points" />
            <mxPoint as="offset" />
          </mxGeometry>
        </mxCell>
        <mxCell id="xwFcN-blnOtsRmMzOvvE-35" value="数据库" style="shape=umlLifeline;perimeter=lifelinePerimeter;whiteSpace=wrap;html=1;container=1;collapsible=0;recursiveResize=0;outlineConnect=0;" parent="1" vertex="1">
          <mxGeometry x="470" y="100" width="100" height="140" as="geometry" />
        </mxCell>
        <mxCell id="xwFcN-blnOtsRmMzOvvE-36" value="" style="points=[];perimeter=orthogonalPerimeter;spacingTop=0;spacing=1;verticalAlign=middle;horizontal=1;direction=west;labelPosition=center;verticalLabelPosition=middle;align=center;" parent="1" vertex="1">
          <mxGeometry x="505" y="240" width="30" height="170" as="geometry" />
        </mxCell>
        <mxCell id="xwFcN-blnOtsRmMzOvvE-37" value="4. 验证登录信息" style="html=1;verticalAlign=bottom;endArrow=block;rounded=0;elbow=vertical;" parent="1" target="xwFcN-blnOtsRmMzOvvE-36" edge="1">
          <mxGeometry x="-0.0434" width="80" relative="1" as="geometry">
            <mxPoint x="380" y="320" as="sourcePoint" />
            <mxPoint x="460" y="260" as="targetPoint" />
            <Array as="points" />
            <mxPoint as="offset" />
          </mxGeometry>
        </mxCell>
        <mxCell id="xwFcN-blnOtsRmMzOvvE-44" value="6. 返回账号与密码不匹配或者账号已被禁用" style="html=1;verticalAlign=bottom;endArrow=open;dashed=1;endSize=8;rounded=0;elbow=vertical;exitX=0.967;exitY=0.452;exitDx=0;exitDy=0;exitPerimeter=0;" parent="1" source="xwFcN-blnOtsRmMzOvvE-26" edge="1">
          <mxGeometry relative="1" as="geometry">
            <mxPoint x="300" y="340" as="sourcePoint" />
            <mxPoint x="90" y="381" as="targetPoint" />
          </mxGeometry>
        </mxCell>
        <mxCell id="xwFcN-blnOtsRmMzOvvE-53" value="5. 验证失败" style="html=1;verticalAlign=bottom;endArrow=open;dashed=1;endSize=8;rounded=0;elbow=vertical;entryX=-0.033;entryY=0.545;entryDx=0;entryDy=0;entryPerimeter=0;" parent="1" source="xwFcN-blnOtsRmMzOvvE-36" target="xwFcN-blnOtsRmMzOvvE-26" edge="1">
          <mxGeometry x="0.05" relative="1" as="geometry">
            <mxPoint x="500" y="330" as="sourcePoint" />
            <mxPoint x="380" y="330" as="targetPoint" />
            <Array as="points">
              <mxPoint x="400" y="350" />
            </Array>
            <mxPoint as="offset" />
          </mxGeometry>
        </mxCell>
        <mxCell id="xwFcN-blnOtsRmMzOvvE-55" value="7. 验证成功" style="html=1;verticalAlign=bottom;endArrow=open;dashed=1;endSize=8;rounded=0;elbow=vertical;" parent="1" edge="1">
          <mxGeometry relative="1" as="geometry">
            <mxPoint x="500" y="400" as="sourcePoint" />
            <mxPoint x="379" y="400" as="targetPoint" />
          </mxGeometry>
        </mxCell>
        <mxCell id="xwFcN-blnOtsRmMzOvvE-57" value="10. 登录信息写入到&lt;br&gt;sessionStorage" style="edgeStyle=orthogonalEdgeStyle;html=1;align=left;spacingLeft=2;endArrow=block;rounded=0;elbow=vertical;" parent="1" edge="1">
          <mxGeometry x="0.9363" y="20" relative="1" as="geometry">
            <mxPoint x="90" y="550" as="sourcePoint" />
            <Array as="points">
              <mxPoint x="210" y="550" />
              <mxPoint x="210" y="570" />
            </Array>
            <mxPoint x="95" y="570" as="targetPoint" />
            <mxPoint as="offset" />
          </mxGeometry>
        </mxCell>
        <mxCell id="xwFcN-blnOtsRmMzOvvE-58" value="9. 返回登录信息" style="html=1;verticalAlign=bottom;endArrow=open;dashed=1;endSize=8;rounded=0;elbow=vertical;" parent="1" edge="1">
          <mxGeometry x="-0.04" relative="1" as="geometry">
            <mxPoint x="340" y="520" as="sourcePoint" />
            <mxPoint x="90" y="520" as="targetPoint" />
            <mxPoint as="offset" />
          </mxGeometry>
        </mxCell>
        <mxCell id="xwFcN-blnOtsRmMzOvvE-61" value="8. 更新security登录用户&lt;br&gt;对象和生成token&amp;nbsp;&amp;nbsp;" style="edgeStyle=orthogonalEdgeStyle;html=1;align=left;spacingLeft=2;endArrow=block;rounded=0;elbow=vertical;" parent="1" edge="1">
          <mxGeometry x="-0.8471" y="20" relative="1" as="geometry">
            <mxPoint x="388" y="480" as="sourcePoint" />
            <Array as="points">
              <mxPoint x="459" y="480" />
              <mxPoint x="459" y="500" />
            </Array>
            <mxPoint x="393" y="500" as="targetPoint" />
            <mxPoint as="offset" />
          </mxGeometry>
        </mxCell>
      </root>
    </mxGraphModel>
  </diagram>
  <diagram id="q03pabFbR6rUY_SWsynf" name="Page-2">
    <mxGraphModel dx="1504" dy="1857" grid="1" gridSize="10" guides="1" tooltips="1" connect="1" arrows="1" fold="1" page="1" pageScale="1" pageWidth="827" pageHeight="1169" math="0" shadow="0">
      <root>
        <mxCell id="0" />
        <mxCell id="1" parent="0" />
        <mxCell id="xvvcfpsyGpLC2p-jH8kl-1" value="" style="ellipse;html=1;shape=startState;fillColor=#000000;strokeColor=#ff0000;" vertex="1" parent="1">
          <mxGeometry x="150" y="20" width="30" height="30" as="geometry" />
        </mxCell>
        <mxCell id="xvvcfpsyGpLC2p-jH8kl-2" value="" style="edgeStyle=orthogonalEdgeStyle;html=1;verticalAlign=bottom;endArrow=open;endSize=8;strokeColor=#ff0000;rounded=0;elbow=vertical;" edge="1" parent="1" source="xvvcfpsyGpLC2p-jH8kl-1">
          <mxGeometry relative="1" as="geometry">
            <mxPoint x="165" y="80" as="targetPoint" />
          </mxGeometry>
        </mxCell>
        <mxCell id="xvvcfpsyGpLC2p-jH8kl-3" value="登录界面" style="rounded=1;whiteSpace=wrap;html=1;arcSize=40;fontColor=#000000;fillColor=#ffffc0;strokeColor=#ff0000;" vertex="1" parent="1">
          <mxGeometry x="130" y="80" width="70" height="30" as="geometry" />
        </mxCell>
        <mxCell id="xvvcfpsyGpLC2p-jH8kl-4" value="" style="edgeStyle=orthogonalEdgeStyle;html=1;verticalAlign=bottom;endArrow=open;endSize=8;strokeColor=#ff0000;rounded=0;elbow=vertical;" edge="1" parent="1" source="xvvcfpsyGpLC2p-jH8kl-3">
          <mxGeometry relative="1" as="geometry">
            <mxPoint x="165" y="140" as="targetPoint" />
          </mxGeometry>
        </mxCell>
        <mxCell id="xvvcfpsyGpLC2p-jH8kl-5" value="是否准入" style="rhombus;whiteSpace=wrap;html=1;fillColor=#ffffc0;strokeColor=#ff0000;fontFamily=Helvetica;fontSize=11;fontColor=default;" vertex="1" parent="1">
          <mxGeometry x="125" y="140" width="80" height="40" as="geometry" />
        </mxCell>
        <mxCell id="xvvcfpsyGpLC2p-jH8kl-6" value="no" style="edgeStyle=orthogonalEdgeStyle;html=1;align=left;verticalAlign=bottom;endArrow=open;endSize=8;strokeColor=#ff0000;rounded=0;labelBackgroundColor=default;fontFamily=Helvetica;fontSize=11;fontColor=default;shape=connector;elbow=vertical;" edge="1" parent="1" source="xvvcfpsyGpLC2p-jH8kl-5">
          <mxGeometry x="-0.5385" relative="1" as="geometry">
            <mxPoint x="270" y="160" as="targetPoint" />
            <mxPoint as="offset" />
          </mxGeometry>
        </mxCell>
        <mxCell id="xvvcfpsyGpLC2p-jH8kl-7" value="返回错误信息" style="rounded=1;whiteSpace=wrap;html=1;arcSize=40;fontColor=#000000;fillColor=#ffffc0;strokeColor=#ff0000;" vertex="1" parent="1">
          <mxGeometry x="20" y="145" width="70" height="30" as="geometry" />
        </mxCell>
        <mxCell id="xvvcfpsyGpLC2p-jH8kl-8" value="" style="edgeStyle=orthogonalEdgeStyle;html=1;verticalAlign=bottom;endArrow=open;endSize=8;strokeColor=#ff0000;rounded=0;elbow=vertical;entryX=0;entryY=0.5;entryDx=0;entryDy=0;exitX=0.415;exitY=-0.002;exitDx=0;exitDy=0;exitPerimeter=0;" edge="1" parent="1" source="xvvcfpsyGpLC2p-jH8kl-7" target="xvvcfpsyGpLC2p-jH8kl-3">
          <mxGeometry relative="1" as="geometry">
            <mxPoint x="45" y="145" as="sourcePoint" />
          </mxGeometry>
        </mxCell>
        <mxCell id="xvvcfpsyGpLC2p-jH8kl-9" value="返回错误信息" style="rounded=1;whiteSpace=wrap;html=1;arcSize=40;fontColor=#000000;fillColor=#ffffc0;strokeColor=#ff0000;" vertex="1" parent="1">
          <mxGeometry x="20" y="145" width="70" height="30" as="geometry" />
        </mxCell>
        <mxCell id="xvvcfpsyGpLC2p-jH8kl-10" value="" style="edgeStyle=orthogonalEdgeStyle;html=1;verticalAlign=bottom;endArrow=open;endSize=8;strokeColor=#ff0000;rounded=0;elbow=vertical;entryX=1;entryY=0.5;entryDx=0;entryDy=0;exitX=0.5;exitY=0;exitDx=0;exitDy=0;" edge="1" parent="1" source="xvvcfpsyGpLC2p-jH8kl-11" target="xvvcfpsyGpLC2p-jH8kl-3">
          <mxGeometry relative="1" as="geometry">
            <mxPoint x="350.95" y="70.03" as="targetPoint" />
            <mxPoint x="270.00000000000006" y="119.97" as="sourcePoint" />
          </mxGeometry>
        </mxCell>
        <mxCell id="xvvcfpsyGpLC2p-jH8kl-11" value="返回不准入信息" style="rounded=1;whiteSpace=wrap;html=1;arcSize=40;fontColor=#000000;fillColor=#ffffc0;strokeColor=#ff0000;" vertex="1" parent="1">
          <mxGeometry x="270" y="140" width="70" height="30" as="geometry" />
        </mxCell>
        <mxCell id="xvvcfpsyGpLC2p-jH8kl-12" value="yes" style="edgeStyle=orthogonalEdgeStyle;html=1;align=left;verticalAlign=bottom;endArrow=open;endSize=8;strokeColor=#ff0000;rounded=0;labelBackgroundColor=default;fontFamily=Helvetica;fontSize=11;fontColor=default;shape=connector;elbow=vertical;exitX=0.5;exitY=1;exitDx=0;exitDy=0;" edge="1" parent="1" source="xvvcfpsyGpLC2p-jH8kl-5">
          <mxGeometry y="5" relative="1" as="geometry">
            <mxPoint x="165" y="220" as="targetPoint" />
            <mxPoint x="170" y="180" as="sourcePoint" />
            <mxPoint as="offset" />
          </mxGeometry>
        </mxCell>
        <mxCell id="xvvcfpsyGpLC2p-jH8kl-13" value="验证身份" style="rhombus;whiteSpace=wrap;html=1;fillColor=#ffffc0;strokeColor=#ff0000;fontFamily=Helvetica;fontSize=11;fontColor=default;" vertex="1" parent="1">
          <mxGeometry x="125" y="220" width="80" height="40" as="geometry" />
        </mxCell>
        <mxCell id="xvvcfpsyGpLC2p-jH8kl-14" value="验证失败" style="edgeStyle=orthogonalEdgeStyle;html=1;align=left;verticalAlign=bottom;endArrow=open;endSize=8;strokeColor=#ff0000;rounded=0;labelBackgroundColor=default;fontFamily=Helvetica;fontSize=11;fontColor=default;shape=connector;elbow=vertical;exitX=0;exitY=0.5;exitDx=0;exitDy=0;entryX=0.5;entryY=1;entryDx=0;entryDy=0;" edge="1" parent="1" source="xvvcfpsyGpLC2p-jH8kl-13" target="xvvcfpsyGpLC2p-jH8kl-9">
          <mxGeometry x="-0.185" y="-10" relative="1" as="geometry">
            <mxPoint x="377.5" y="230" as="targetPoint" />
            <mxPoint as="offset" />
          </mxGeometry>
        </mxCell>
        <mxCell id="xvvcfpsyGpLC2p-jH8kl-15" value="验证成功" style="edgeStyle=orthogonalEdgeStyle;html=1;align=left;verticalAlign=bottom;endArrow=open;endSize=8;strokeColor=#ff0000;rounded=0;labelBackgroundColor=default;fontFamily=Helvetica;fontSize=11;fontColor=default;shape=connector;elbow=vertical;exitX=0.5;exitY=1;exitDx=0;exitDy=0;" edge="1" parent="1" source="xvvcfpsyGpLC2p-jH8kl-13">
          <mxGeometry y="5" relative="1" as="geometry">
            <mxPoint x="165" y="310" as="targetPoint" />
            <mxPoint x="277.5" y="250" as="sourcePoint" />
            <mxPoint as="offset" />
          </mxGeometry>
        </mxCell>
        <mxCell id="xvvcfpsyGpLC2p-jH8kl-16" style="edgeStyle=orthogonalEdgeStyle;shape=connector;rounded=0;orthogonalLoop=1;jettySize=auto;html=1;exitX=0.5;exitY=1;exitDx=0;exitDy=0;entryX=0.5;entryY=0;entryDx=0;entryDy=0;labelBackgroundColor=default;fontFamily=Helvetica;fontSize=11;fontColor=default;endArrow=open;endSize=8;strokeColor=#ff0000;elbow=vertical;" edge="1" parent="1" source="xvvcfpsyGpLC2p-jH8kl-17" target="xvvcfpsyGpLC2p-jH8kl-18">
          <mxGeometry relative="1" as="geometry" />
        </mxCell>
        <mxCell id="xvvcfpsyGpLC2p-jH8kl-17" value="首页" style="rounded=1;whiteSpace=wrap;html=1;arcSize=40;fontColor=#000000;fillColor=#ffffc0;strokeColor=#ff0000;" vertex="1" parent="1">
          <mxGeometry x="130" y="310" width="70" height="30" as="geometry" />
        </mxCell>
        <mxCell id="xvvcfpsyGpLC2p-jH8kl-18" value="" style="ellipse;html=1;shape=endState;fillColor=#000000;strokeColor=#ff0000;fontFamily=Helvetica;fontSize=11;fontColor=default;" vertex="1" parent="1">
          <mxGeometry x="150" y="390" width="30" height="30" as="geometry" />
        </mxCell>
        <mxCell id="rSDePoiXueNLcM7oz_pW-27" value="" style="edgeStyle=orthogonalEdgeStyle;shape=connector;rounded=0;orthogonalLoop=1;jettySize=auto;html=1;labelBackgroundColor=default;fontFamily=Helvetica;fontSize=11;fontColor=default;endArrow=open;endSize=8;strokeColor=#ff0000;elbow=vertical;exitX=0.5;exitY=0.833;exitDx=0;exitDy=0;exitPerimeter=0;" edge="1" parent="1" source="rSDePoiXueNLcM7oz_pW-1" target="rSDePoiXueNLcM7oz_pW-26">
          <mxGeometry relative="1" as="geometry" />
        </mxCell>
        <mxCell id="rSDePoiXueNLcM7oz_pW-1" value="" style="ellipse;html=1;shape=startState;fillColor=#000000;strokeColor=#ff0000;" vertex="1" parent="1">
          <mxGeometry x="636.25" y="-30" width="30" height="30" as="geometry" />
        </mxCell>
        <mxCell id="rSDePoiXueNLcM7oz_pW-15" value="" style="edgeStyle=orthogonalEdgeStyle;html=1;align=left;verticalAlign=bottom;endArrow=open;endSize=8;strokeColor=#ff0000;rounded=0;labelBackgroundColor=default;fontFamily=Helvetica;fontSize=11;fontColor=default;shape=connector;elbow=vertical;exitX=0.5;exitY=1;exitDx=0;exitDy=0;" edge="1" parent="1">
          <mxGeometry y="5" relative="1" as="geometry">
            <mxPoint x="652.08" y="380" as="targetPoint" />
            <mxPoint x="652.08" y="330" as="sourcePoint" />
            <mxPoint as="offset" />
          </mxGeometry>
        </mxCell>
        <mxCell id="rSDePoiXueNLcM7oz_pW-17" value="服务器查询相关信息并返回给当前界面" style="rounded=1;whiteSpace=wrap;html=1;arcSize=40;fontColor=#000000;fillColor=#ffffc0;strokeColor=#ff0000;" vertex="1" parent="1">
          <mxGeometry x="581.25" y="260" width="142.5" height="70" as="geometry" />
        </mxCell>
        <mxCell id="rSDePoiXueNLcM7oz_pW-18" value="" style="ellipse;html=1;shape=endState;fillColor=#000000;strokeColor=#ff0000;fontFamily=Helvetica;fontSize=11;fontColor=default;" vertex="1" parent="1">
          <mxGeometry x="637.5" y="380" width="30" height="30" as="geometry" />
        </mxCell>
        <mxCell id="rSDePoiXueNLcM7oz_pW-30" style="edgeStyle=orthogonalEdgeStyle;shape=connector;rounded=0;orthogonalLoop=1;jettySize=auto;html=1;exitX=0.5;exitY=1;exitDx=0;exitDy=0;entryX=0.5;entryY=0;entryDx=0;entryDy=0;labelBackgroundColor=default;fontFamily=Helvetica;fontSize=11;fontColor=default;endArrow=open;endSize=8;strokeColor=#ff0000;elbow=vertical;" edge="1" parent="1" source="rSDePoiXueNLcM7oz_pW-24" target="rSDePoiXueNLcM7oz_pW-17">
          <mxGeometry relative="1" as="geometry" />
        </mxCell>
        <mxCell id="rSDePoiXueNLcM7oz_pW-24" value="获取消息Id" style="rounded=1;whiteSpace=wrap;html=1;arcSize=40;fontColor=#000000;fillColor=#ffffc0;strokeColor=#ff0000;" vertex="1" parent="1">
          <mxGeometry x="581.25" y="150" width="142.5" height="70" as="geometry" />
        </mxCell>
        <mxCell id="rSDePoiXueNLcM7oz_pW-29" style="edgeStyle=orthogonalEdgeStyle;shape=connector;rounded=0;orthogonalLoop=1;jettySize=auto;html=1;exitX=0.5;exitY=1;exitDx=0;exitDy=0;entryX=0.5;entryY=0;entryDx=0;entryDy=0;labelBackgroundColor=default;fontFamily=Helvetica;fontSize=11;fontColor=default;endArrow=open;endSize=8;strokeColor=#ff0000;elbow=vertical;" edge="1" parent="1" source="rSDePoiXueNLcM7oz_pW-26" target="rSDePoiXueNLcM7oz_pW-24">
          <mxGeometry relative="1" as="geometry" />
        </mxCell>
        <mxCell id="rSDePoiXueNLcM7oz_pW-26" value="点击消息" style="rounded=1;whiteSpace=wrap;html=1;arcSize=40;fontColor=#000000;fillColor=#ffffc0;strokeColor=#ff0000;" vertex="1" parent="1">
          <mxGeometry x="580" y="50" width="142.5" height="70" as="geometry" />
        </mxCell>
        <mxCell id="4s--fwpBMwwNCs8ZoAXj-1" value="" style="edgeStyle=orthogonalEdgeStyle;shape=connector;rounded=0;orthogonalLoop=1;jettySize=auto;html=1;labelBackgroundColor=default;fontFamily=Helvetica;fontSize=11;fontColor=default;endArrow=open;endSize=8;strokeColor=#ff0000;elbow=vertical;exitX=0.5;exitY=0.833;exitDx=0;exitDy=0;exitPerimeter=0;" edge="1" parent="1" source="4s--fwpBMwwNCs8ZoAXj-2" target="4s--fwpBMwwNCs8ZoAXj-9">
          <mxGeometry relative="1" as="geometry" />
        </mxCell>
        <mxCell id="4s--fwpBMwwNCs8ZoAXj-2" value="" style="ellipse;html=1;shape=startState;fillColor=#000000;strokeColor=#ff0000;" vertex="1" parent="1">
          <mxGeometry x="126.25" y="580" width="30" height="30" as="geometry" />
        </mxCell>
        <mxCell id="4s--fwpBMwwNCs8ZoAXj-3" value="" style="edgeStyle=orthogonalEdgeStyle;html=1;align=left;verticalAlign=bottom;endArrow=open;endSize=8;strokeColor=#ff0000;rounded=0;labelBackgroundColor=default;fontFamily=Helvetica;fontSize=11;fontColor=default;shape=connector;elbow=vertical;exitX=0.5;exitY=1;exitDx=0;exitDy=0;" edge="1" parent="1">
          <mxGeometry y="5" relative="1" as="geometry">
            <mxPoint x="142.07999999999993" y="990" as="targetPoint" />
            <mxPoint x="142.07999999999993" y="940" as="sourcePoint" />
            <mxPoint as="offset" />
          </mxGeometry>
        </mxCell>
        <mxCell id="4s--fwpBMwwNCs8ZoAXj-4" value="用户管理页面刷新页面，回显数据" style="rounded=1;whiteSpace=wrap;html=1;arcSize=40;fontColor=#000000;fillColor=#ffffc0;strokeColor=#ff0000;" vertex="1" parent="1">
          <mxGeometry x="71.25" y="870" width="142.5" height="70" as="geometry" />
        </mxCell>
        <mxCell id="4s--fwpBMwwNCs8ZoAXj-5" value="" style="ellipse;html=1;shape=endState;fillColor=#000000;strokeColor=#ff0000;fontFamily=Helvetica;fontSize=11;fontColor=default;" vertex="1" parent="1">
          <mxGeometry x="127.5" y="990" width="30" height="30" as="geometry" />
        </mxCell>
        <mxCell id="4s--fwpBMwwNCs8ZoAXj-6" style="edgeStyle=orthogonalEdgeStyle;shape=connector;rounded=0;orthogonalLoop=1;jettySize=auto;html=1;exitX=0.5;exitY=1;exitDx=0;exitDy=0;entryX=0.5;entryY=0;entryDx=0;entryDy=0;labelBackgroundColor=default;fontFamily=Helvetica;fontSize=11;fontColor=default;endArrow=open;endSize=8;strokeColor=#ff0000;elbow=vertical;" edge="1" parent="1" source="4s--fwpBMwwNCs8ZoAXj-7" target="4s--fwpBMwwNCs8ZoAXj-4">
          <mxGeometry relative="1" as="geometry" />
        </mxCell>
        <mxCell id="4s--fwpBMwwNCs8ZoAXj-7" value="数据库添加用户数据并返回成功" style="rounded=1;whiteSpace=wrap;html=1;arcSize=40;fontColor=#000000;fillColor=#ffffc0;strokeColor=#ff0000;" vertex="1" parent="1">
          <mxGeometry x="71.25" y="760" width="142.5" height="70" as="geometry" />
        </mxCell>
        <mxCell id="4s--fwpBMwwNCs8ZoAXj-8" style="edgeStyle=orthogonalEdgeStyle;shape=connector;rounded=0;orthogonalLoop=1;jettySize=auto;html=1;exitX=0.5;exitY=1;exitDx=0;exitDy=0;entryX=0.5;entryY=0;entryDx=0;entryDy=0;labelBackgroundColor=default;fontFamily=Helvetica;fontSize=11;fontColor=default;endArrow=open;endSize=8;strokeColor=#ff0000;elbow=vertical;" edge="1" parent="1" source="4s--fwpBMwwNCs8ZoAXj-9" target="4s--fwpBMwwNCs8ZoAXj-7">
          <mxGeometry relative="1" as="geometry" />
        </mxCell>
        <mxCell id="4s--fwpBMwwNCs8ZoAXj-9" value="单击新增用户" style="rounded=1;whiteSpace=wrap;html=1;arcSize=40;fontColor=#000000;fillColor=#ffffc0;strokeColor=#ff0000;" vertex="1" parent="1">
          <mxGeometry x="70" y="660" width="142.5" height="70" as="geometry" />
        </mxCell>
        <mxCell id="pNRT2g3OatYijJ9NiD3d-1" value="" style="edgeStyle=orthogonalEdgeStyle;shape=connector;rounded=0;orthogonalLoop=1;jettySize=auto;html=1;labelBackgroundColor=default;fontFamily=Helvetica;fontSize=11;fontColor=default;endArrow=open;endSize=8;strokeColor=#ff0000;elbow=vertical;exitX=0.5;exitY=0.833;exitDx=0;exitDy=0;exitPerimeter=0;" edge="1" parent="1" source="pNRT2g3OatYijJ9NiD3d-2" target="pNRT2g3OatYijJ9NiD3d-9">
          <mxGeometry relative="1" as="geometry" />
        </mxCell>
        <mxCell id="pNRT2g3OatYijJ9NiD3d-2" value="" style="ellipse;html=1;shape=startState;fillColor=#000000;strokeColor=#ff0000;" vertex="1" parent="1">
          <mxGeometry x="586.25" y="485" width="30" height="30" as="geometry" />
        </mxCell>
        <mxCell id="pNRT2g3OatYijJ9NiD3d-22" value="" style="edgeStyle=none;rounded=0;orthogonalLoop=1;jettySize=auto;html=1;shadow=1;labelBackgroundColor=default;fontFamily=Helvetica;fontSize=11;fontColor=default;endArrow=open;endSize=8;strokeColor=#FF0000;elbow=vertical;" edge="1" parent="1" source="pNRT2g3OatYijJ9NiD3d-4" target="pNRT2g3OatYijJ9NiD3d-21">
          <mxGeometry relative="1" as="geometry" />
        </mxCell>
        <mxCell id="pNRT2g3OatYijJ9NiD3d-4" value="教学文件存入到服务器里" style="rounded=1;whiteSpace=wrap;html=1;arcSize=40;fontColor=#000000;fillColor=#ffffc0;strokeColor=#ff0000;" vertex="1" parent="1">
          <mxGeometry x="531.25" y="775" width="142.5" height="70" as="geometry" />
        </mxCell>
        <mxCell id="pNRT2g3OatYijJ9NiD3d-6" style="edgeStyle=orthogonalEdgeStyle;shape=connector;rounded=0;orthogonalLoop=1;jettySize=auto;html=1;exitX=0.5;exitY=1;exitDx=0;exitDy=0;entryX=0.5;entryY=0;entryDx=0;entryDy=0;labelBackgroundColor=default;fontFamily=Helvetica;fontSize=11;fontColor=default;endArrow=open;endSize=8;strokeColor=#ff0000;elbow=vertical;" edge="1" parent="1" source="pNRT2g3OatYijJ9NiD3d-7" target="pNRT2g3OatYijJ9NiD3d-4">
          <mxGeometry relative="1" as="geometry" />
        </mxCell>
        <mxCell id="pNRT2g3OatYijJ9NiD3d-7" value="选择教学文件" style="rounded=1;whiteSpace=wrap;html=1;arcSize=40;fontColor=#000000;fillColor=#ffffc0;strokeColor=#ff0000;" vertex="1" parent="1">
          <mxGeometry x="531.25" y="665" width="142.5" height="70" as="geometry" />
        </mxCell>
        <mxCell id="pNRT2g3OatYijJ9NiD3d-8" style="edgeStyle=orthogonalEdgeStyle;shape=connector;rounded=0;orthogonalLoop=1;jettySize=auto;html=1;exitX=0.5;exitY=1;exitDx=0;exitDy=0;entryX=0.5;entryY=0;entryDx=0;entryDy=0;labelBackgroundColor=default;fontFamily=Helvetica;fontSize=11;fontColor=default;endArrow=open;endSize=8;strokeColor=#ff0000;elbow=vertical;" edge="1" parent="1" source="pNRT2g3OatYijJ9NiD3d-9" target="pNRT2g3OatYijJ9NiD3d-7">
          <mxGeometry relative="1" as="geometry" />
        </mxCell>
        <mxCell id="pNRT2g3OatYijJ9NiD3d-9" value="单击上传教学文件" style="rounded=1;whiteSpace=wrap;html=1;arcSize=40;fontColor=#000000;fillColor=#ffffc0;strokeColor=#ff0000;" vertex="1" parent="1">
          <mxGeometry x="530" y="565" width="142.5" height="70" as="geometry" />
        </mxCell>
        <mxCell id="pNRT2g3OatYijJ9NiD3d-24" value="" style="edgeStyle=none;rounded=0;orthogonalLoop=1;jettySize=auto;html=1;shadow=1;labelBackgroundColor=default;fontFamily=Helvetica;fontSize=11;fontColor=default;endArrow=open;endSize=8;strokeColor=#FF0000;elbow=vertical;" edge="1" parent="1" source="pNRT2g3OatYijJ9NiD3d-21" target="pNRT2g3OatYijJ9NiD3d-23">
          <mxGeometry relative="1" as="geometry" />
        </mxCell>
        <mxCell id="pNRT2g3OatYijJ9NiD3d-21" value="教学文件相关信息存入到数据库中" style="whiteSpace=wrap;html=1;fillColor=#ffffc0;strokeColor=#ff0000;fontColor=#000000;rounded=1;arcSize=40;" vertex="1" parent="1">
          <mxGeometry x="541.25" y="890" width="120" height="60" as="geometry" />
        </mxCell>
        <mxCell id="pNRT2g3OatYijJ9NiD3d-26" style="edgeStyle=none;rounded=0;orthogonalLoop=1;jettySize=auto;html=1;exitX=0.5;exitY=1;exitDx=0;exitDy=0;entryX=0.5;entryY=0;entryDx=0;entryDy=0;shadow=0;labelBackgroundColor=default;fontFamily=Helvetica;fontSize=11;fontColor=default;endArrow=open;endSize=8;strokeColor=#FF0000;elbow=vertical;" edge="1" parent="1" source="pNRT2g3OatYijJ9NiD3d-23" target="pNRT2g3OatYijJ9NiD3d-25">
          <mxGeometry relative="1" as="geometry" />
        </mxCell>
        <mxCell id="pNRT2g3OatYijJ9NiD3d-23" value="教学文件管理页面刷新页面，回显数据" style="whiteSpace=wrap;html=1;fillColor=#ffffc0;strokeColor=#ff0000;fontColor=#000000;rounded=1;arcSize=40;" vertex="1" parent="1">
          <mxGeometry x="542.5" y="990" width="120" height="60" as="geometry" />
        </mxCell>
        <mxCell id="pNRT2g3OatYijJ9NiD3d-25" value="" style="ellipse;html=1;shape=endState;fillColor=#000000;strokeColor=#ff0000;fontFamily=Helvetica;fontSize=11;fontColor=default;" vertex="1" parent="1">
          <mxGeometry x="587" y="1100" width="30" height="30" as="geometry" />
        </mxCell>
      </root>
    </mxGraphModel>
  </diagram>
  <diagram id="xmQ1Gnp2-7AOyvieAZb9" name="Page-3">
    <mxGraphModel dx="1278" dy="585" grid="1" gridSize="10" guides="1" tooltips="1" connect="1" arrows="1" fold="1" page="1" pageScale="1" pageWidth="827" pageHeight="1169" math="0" shadow="0">
      <root>
        <mxCell id="0" />
        <mxCell id="1" parent="0" />
        <mxCell id="Gn4B7lReAi4KYy9rgsEi-1" value="浏&#xa;&#xa;&#xa;&#xa;览&#xa;&#xa;&#xa;&#xa;&#xa;器" style="points=[];perimeter=orthogonalPerimeter;spacingTop=0;spacing=1;verticalAlign=middle;horizontal=1;direction=west;labelPosition=center;verticalLabelPosition=middle;align=center;" vertex="1" parent="1">
          <mxGeometry x="60" y="190" width="30" height="230" as="geometry" />
        </mxCell>
        <mxCell id="Gn4B7lReAi4KYy9rgsEi-2" value="用户" style="shape=umlLifeline;participant=umlActor;perimeter=lifelinePerimeter;whiteSpace=wrap;html=1;container=1;collapsible=0;recursiveResize=0;verticalAlign=top;spacingTop=36;outlineConnect=0;" vertex="1" parent="1">
          <mxGeometry x="60" y="90" width="30" height="100" as="geometry" />
        </mxCell>
        <mxCell id="Gn4B7lReAi4KYy9rgsEi-3" value="MsgControl" style="shape=umlLifeline;perimeter=lifelinePerimeter;whiteSpace=wrap;html=1;container=1;collapsible=0;recursiveResize=0;outlineConnect=0;" vertex="1" parent="1">
          <mxGeometry x="160" y="100" width="100" height="100" as="geometry" />
        </mxCell>
        <mxCell id="Gn4B7lReAi4KYy9rgsEi-4" value="" style="points=[];perimeter=orthogonalPerimeter;spacingTop=0;spacing=1;verticalAlign=middle;horizontal=1;direction=west;labelPosition=center;verticalLabelPosition=middle;align=center;" vertex="1" parent="1">
          <mxGeometry x="195" y="200" width="30" height="70" as="geometry" />
        </mxCell>
        <mxCell id="Gn4B7lReAi4KYy9rgsEi-5" value="&lt;font style=&quot;vertical-align: inherit;&quot;&gt;&lt;font style=&quot;vertical-align: inherit;&quot;&gt;&lt;font style=&quot;vertical-align: inherit;&quot;&gt;&lt;font style=&quot;vertical-align: inherit;&quot;&gt;1. 点击相关消息&lt;/font&gt;&lt;/font&gt;&lt;/font&gt;&lt;/font&gt;" style="html=1;verticalAlign=bottom;endArrow=block;rounded=0;elbow=vertical;spacingTop=3;" edge="1" parent="1" target="Gn4B7lReAi4KYy9rgsEi-4">
          <mxGeometry x="-0.0722" y="10" width="80" relative="1" as="geometry">
            <mxPoint x="90" y="239.5" as="sourcePoint" />
            <mxPoint x="229.5" y="200" as="targetPoint" />
            <mxPoint y="1" as="offset" />
          </mxGeometry>
        </mxCell>
        <mxCell id="Gn4B7lReAi4KYy9rgsEi-6" value="&lt;font style=&quot;vertical-align: inherit;&quot;&gt;&lt;font style=&quot;vertical-align: inherit;&quot;&gt;&lt;font style=&quot;vertical-align: inherit;&quot;&gt;&lt;font style=&quot;vertical-align: inherit;&quot;&gt;MsgService&lt;/font&gt;&lt;/font&gt;&lt;/font&gt;&lt;/font&gt;" style="shape=umlLifeline;perimeter=lifelinePerimeter;whiteSpace=wrap;html=1;container=1;collapsible=0;recursiveResize=0;outlineConnect=0;" vertex="1" parent="1">
          <mxGeometry x="314" y="100" width="100" height="100" as="geometry" />
        </mxCell>
        <mxCell id="Gn4B7lReAi4KYy9rgsEi-7" value="" style="points=[];perimeter=orthogonalPerimeter;spacingTop=0;spacing=1;verticalAlign=middle;horizontal=1;direction=west;labelPosition=center;verticalLabelPosition=middle;align=center;" vertex="1" parent="1">
          <mxGeometry x="349" y="200" width="30" height="160" as="geometry" />
        </mxCell>
        <mxCell id="Gn4B7lReAi4KYy9rgsEi-8" value="2. 获取消息Id" style="html=1;verticalAlign=bottom;endArrow=block;rounded=0;elbow=vertical;" edge="1" parent="1" source="Gn4B7lReAi4KYy9rgsEi-4" target="Gn4B7lReAi4KYy9rgsEi-7">
          <mxGeometry x="0.0484" width="80" relative="1" as="geometry">
            <mxPoint x="314" y="260" as="sourcePoint" />
            <mxPoint x="470" y="260" as="targetPoint" />
            <Array as="points">
              <mxPoint x="260" y="250" />
            </Array>
            <mxPoint as="offset" />
          </mxGeometry>
        </mxCell>
        <mxCell id="Gn4B7lReAi4KYy9rgsEi-10" value="MsgMapper" style="shape=umlLifeline;perimeter=lifelinePerimeter;whiteSpace=wrap;html=1;container=1;collapsible=0;recursiveResize=0;outlineConnect=0;" vertex="1" parent="1">
          <mxGeometry x="470" y="100" width="100" height="140" as="geometry" />
        </mxCell>
        <mxCell id="Gn4B7lReAi4KYy9rgsEi-11" value="" style="points=[];perimeter=orthogonalPerimeter;spacingTop=0;spacing=1;verticalAlign=middle;horizontal=1;direction=west;labelPosition=center;verticalLabelPosition=middle;align=center;" vertex="1" parent="1">
          <mxGeometry x="505" y="240" width="30" height="170" as="geometry" />
        </mxCell>
        <mxCell id="LyQEZkfbRbOdfFakFG2F-2" value="3. 调用对应的sql" style="html=1;verticalAlign=bottom;endArrow=block;rounded=0;labelBackgroundColor=default;fontFamily=Helvetica;fontSize=11;fontColor=default;endSize=8;strokeColor=#000000;shape=connector;elbow=vertical;" edge="1" parent="1">
          <mxGeometry width="80" relative="1" as="geometry">
            <mxPoint x="380" y="260" as="sourcePoint" />
            <mxPoint x="505" y="260" as="targetPoint" />
          </mxGeometry>
        </mxCell>
        <mxCell id="LyQEZkfbRbOdfFakFG2F-4" value="4. 根据消息Id在数据库中&lt;br&gt;查找相应信息并返回" style="edgeStyle=orthogonalEdgeStyle;html=1;align=left;spacingLeft=2;endArrow=block;rounded=0;labelBackgroundColor=default;fontFamily=Helvetica;fontSize=11;fontColor=default;endSize=8;strokeColor=#000000;shape=connector;elbow=vertical;exitX=0;exitY=0.636;exitDx=0;exitDy=0;exitPerimeter=0;" edge="1" parent="1" source="Gn4B7lReAi4KYy9rgsEi-11">
          <mxGeometry relative="1" as="geometry">
            <mxPoint x="540" y="280" as="sourcePoint" />
            <Array as="points">
              <mxPoint x="535" y="280" />
              <mxPoint x="585" y="280" />
              <mxPoint x="585" y="380" />
              <mxPoint x="535" y="380" />
            </Array>
            <mxPoint x="535" y="380" as="targetPoint" />
          </mxGeometry>
        </mxCell>
        <mxCell id="LyQEZkfbRbOdfFakFG2F-7" value="5. 返回消息信息" style="html=1;verticalAlign=bottom;endArrow=open;dashed=1;endSize=8;rounded=0;labelBackgroundColor=default;fontFamily=Helvetica;fontSize=11;fontColor=default;strokeColor=#000000;shape=connector;elbow=vertical;" edge="1" parent="1" source="Gn4B7lReAi4KYy9rgsEi-11">
          <mxGeometry relative="1" as="geometry">
            <mxPoint x="170" y="400" as="sourcePoint" />
            <mxPoint x="90" y="400" as="targetPoint" />
          </mxGeometry>
        </mxCell>
        <mxCell id="rO3-1Kn5tQKQPEE35pFG-2" value="用户" style="shape=umlLifeline;participant=umlActor;perimeter=lifelinePerimeter;whiteSpace=wrap;html=1;container=1;collapsible=0;recursiveResize=0;verticalAlign=top;spacingTop=36;outlineConnect=0;" vertex="1" parent="1">
          <mxGeometry x="60" y="530" width="30" height="441" as="geometry" />
        </mxCell>
        <mxCell id="rO3-1Kn5tQKQPEE35pFG-3" value="UserControl" style="shape=umlLifeline;perimeter=lifelinePerimeter;whiteSpace=wrap;html=1;container=1;collapsible=0;recursiveResize=0;outlineConnect=0;" vertex="1" parent="1">
          <mxGeometry x="160" y="540" width="100" height="100" as="geometry" />
        </mxCell>
        <mxCell id="rO3-1Kn5tQKQPEE35pFG-5" value="&lt;font style=&quot;vertical-align: inherit;&quot;&gt;&lt;font style=&quot;vertical-align: inherit;&quot;&gt;&lt;font style=&quot;vertical-align: inherit;&quot;&gt;&lt;font style=&quot;vertical-align: inherit;&quot;&gt;1. 发送数据&lt;br&gt;初始化请求&lt;/font&gt;&lt;/font&gt;&lt;/font&gt;&lt;/font&gt;" style="html=1;verticalAlign=bottom;endArrow=block;rounded=0;elbow=vertical;spacingTop=3;" edge="1" parent="1" target="rO3-1Kn5tQKQPEE35pFG-4" source="rO3-1Kn5tQKQPEE35pFG-2">
          <mxGeometry x="-0.0722" y="10" width="80" relative="1" as="geometry">
            <mxPoint x="93.99000000000001" y="648.4000000000001" as="sourcePoint" />
            <mxPoint x="229.5" y="640" as="targetPoint" />
            <mxPoint y="1" as="offset" />
            <Array as="points">
              <mxPoint x="140" y="641" />
            </Array>
          </mxGeometry>
        </mxCell>
        <mxCell id="rO3-1Kn5tQKQPEE35pFG-6" value="&lt;font style=&quot;vertical-align: inherit;&quot;&gt;&lt;font style=&quot;vertical-align: inherit;&quot;&gt;&lt;font style=&quot;vertical-align: inherit;&quot;&gt;&lt;font style=&quot;vertical-align: inherit;&quot;&gt;mysql数据库&lt;/font&gt;&lt;/font&gt;&lt;/font&gt;&lt;/font&gt;" style="shape=umlLifeline;perimeter=lifelinePerimeter;whiteSpace=wrap;html=1;container=1;collapsible=0;recursiveResize=0;outlineConnect=0;" vertex="1" parent="1">
          <mxGeometry x="314" y="540" width="100" height="100" as="geometry" />
        </mxCell>
        <mxCell id="rO3-1Kn5tQKQPEE35pFG-7" value="" style="points=[];perimeter=orthogonalPerimeter;spacingTop=0;spacing=1;verticalAlign=middle;horizontal=1;direction=west;labelPosition=center;verticalLabelPosition=middle;align=center;" vertex="1" parent="1">
          <mxGeometry x="356.75" y="640" width="14.5" height="91" as="geometry" />
        </mxCell>
        <mxCell id="rO3-1Kn5tQKQPEE35pFG-9" value="用户管理界面" style="shape=umlLifeline;perimeter=lifelinePerimeter;whiteSpace=wrap;html=1;container=1;collapsible=0;recursiveResize=0;outlineConnect=0;" vertex="1" parent="1">
          <mxGeometry x="470" y="540" width="100" height="171" as="geometry" />
        </mxCell>
        <mxCell id="rO3-1Kn5tQKQPEE35pFG-4" value="" style="points=[];perimeter=orthogonalPerimeter;spacingTop=0;spacing=1;verticalAlign=middle;horizontal=1;direction=west;labelPosition=center;verticalLabelPosition=middle;align=center;" vertex="1" parent="1">
          <mxGeometry x="202.5" y="640" width="15" height="31" as="geometry" />
        </mxCell>
        <mxCell id="rO3-1Kn5tQKQPEE35pFG-19" value="2. 获得当前用户&lt;br&gt;初始化数据" style="html=1;verticalAlign=bottom;endArrow=block;rounded=0;labelBackgroundColor=default;fontFamily=Helvetica;fontSize=11;fontColor=default;endSize=8;strokeColor=#000000;elbow=vertical;" edge="1" parent="1" source="rO3-1Kn5tQKQPEE35pFG-4" target="rO3-1Kn5tQKQPEE35pFG-7">
          <mxGeometry width="80" relative="1" as="geometry">
            <mxPoint x="280" y="671" as="sourcePoint" />
            <mxPoint x="350" y="671" as="targetPoint" />
          </mxGeometry>
        </mxCell>
        <mxCell id="rO3-1Kn5tQKQPEE35pFG-20" value="" style="endArrow=none;dashed=1;html=1;rounded=0;labelBackgroundColor=default;fontFamily=Helvetica;fontSize=11;fontColor=default;endSize=8;strokeColor=#000000;elbow=vertical;" edge="1" parent="1">
          <mxGeometry width="50" height="50" relative="1" as="geometry">
            <mxPoint x="209.5" y="700.5" as="sourcePoint" />
            <mxPoint x="209.5" y="670.5" as="targetPoint" />
          </mxGeometry>
        </mxCell>
        <mxCell id="rO3-1Kn5tQKQPEE35pFG-21" value="" style="points=[];perimeter=orthogonalPerimeter;spacingTop=0;spacing=1;verticalAlign=middle;horizontal=1;direction=west;labelPosition=center;verticalLabelPosition=middle;align=center;" vertex="1" parent="1">
          <mxGeometry x="202.5" y="695" width="15" height="51" as="geometry" />
        </mxCell>
        <mxCell id="rO3-1Kn5tQKQPEE35pFG-22" value="3. 返回初始化数据" style="html=1;verticalAlign=bottom;endArrow=open;dashed=1;endSize=8;rounded=0;labelBackgroundColor=default;fontFamily=Helvetica;fontSize=11;fontColor=default;strokeColor=#000000;elbow=vertical;" edge="1" parent="1">
          <mxGeometry x="-0.0238" relative="1" as="geometry">
            <mxPoint x="356.75" y="720" as="sourcePoint" />
            <mxPoint x="220" y="720" as="targetPoint" />
            <mxPoint as="offset" />
          </mxGeometry>
        </mxCell>
        <mxCell id="rO3-1Kn5tQKQPEE35pFG-25" value="4. 初始化数据返回页面" style="html=1;verticalAlign=bottom;endArrow=block;rounded=0;labelBackgroundColor=default;fontFamily=Helvetica;fontSize=11;fontColor=default;endSize=8;strokeColor=#000000;elbow=vertical;" edge="1" parent="1">
          <mxGeometry x="-0.0345" y="-30" width="80" relative="1" as="geometry">
            <mxPoint x="225" y="740.5" as="sourcePoint" />
            <mxPoint x="515" y="740.5" as="targetPoint" />
            <mxPoint as="offset" />
          </mxGeometry>
        </mxCell>
        <mxCell id="rO3-1Kn5tQKQPEE35pFG-28" value="" style="html=1;points=[];perimeter=orthogonalPerimeter;fontFamily=Helvetica;fontSize=11;fontColor=default;" vertex="1" parent="1">
          <mxGeometry x="515" y="711" width="10" height="70" as="geometry" />
        </mxCell>
        <mxCell id="rO3-1Kn5tQKQPEE35pFG-29" value="11. 刷新页面" style="edgeStyle=orthogonalEdgeStyle;html=1;align=left;spacingLeft=2;endArrow=block;rounded=0;labelBackgroundColor=default;fontFamily=Helvetica;fontSize=11;fontColor=default;endSize=8;strokeColor=#000000;elbow=vertical;" edge="1" parent="1">
          <mxGeometry x="-0.0588" relative="1" as="geometry">
            <mxPoint x="525" y="928.5" as="sourcePoint" />
            <Array as="points">
              <mxPoint x="550" y="928.5" />
              <mxPoint x="550" y="963.5" />
              <mxPoint x="530" y="963.5" />
            </Array>
            <mxPoint x="530" y="963.5" as="targetPoint" />
            <mxPoint as="offset" />
          </mxGeometry>
        </mxCell>
        <mxCell id="rO3-1Kn5tQKQPEE35pFG-30" value="" style="html=1;points=[];perimeter=orthogonalPerimeter;fontFamily=Helvetica;fontSize=11;fontColor=default;" vertex="1" parent="1">
          <mxGeometry x="515" y="821" width="10" height="80" as="geometry" />
        </mxCell>
        <mxCell id="rO3-1Kn5tQKQPEE35pFG-31" value="6. 新增用户" style="html=1;verticalAlign=bottom;endArrow=block;entryX=0;entryY=0;rounded=0;labelBackgroundColor=default;fontFamily=Helvetica;fontSize=11;fontColor=default;endSize=8;strokeColor=#000000;elbow=vertical;" edge="1" target="rO3-1Kn5tQKQPEE35pFG-30" parent="1" source="rO3-1Kn5tQKQPEE35pFG-2">
          <mxGeometry relative="1" as="geometry">
            <mxPoint x="445" y="821" as="sourcePoint" />
          </mxGeometry>
        </mxCell>
        <mxCell id="rO3-1Kn5tQKQPEE35pFG-32" value="7. 请求添加用户" style="html=1;verticalAlign=bottom;endArrow=open;dashed=1;endSize=8;rounded=0;labelBackgroundColor=default;fontFamily=Helvetica;fontSize=11;fontColor=default;strokeColor=#000000;elbow=vertical;" edge="1" parent="1">
          <mxGeometry relative="1" as="geometry">
            <mxPoint x="220" y="861" as="targetPoint" />
            <mxPoint x="510" y="861" as="sourcePoint" />
          </mxGeometry>
        </mxCell>
        <mxCell id="rO3-1Kn5tQKQPEE35pFG-34" value="" style="endArrow=none;dashed=1;html=1;rounded=0;shadow=1;labelBackgroundColor=default;fontFamily=Helvetica;fontSize=11;fontColor=default;endSize=8;strokeColor=#000000;elbow=vertical;" edge="1" parent="1">
          <mxGeometry width="50" height="50" relative="1" as="geometry">
            <mxPoint x="519.5" y="821" as="sourcePoint" />
            <mxPoint x="520" y="781" as="targetPoint" />
          </mxGeometry>
        </mxCell>
        <mxCell id="rO3-1Kn5tQKQPEE35pFG-36" value="" style="points=[];perimeter=orthogonalPerimeter;spacingTop=0;spacing=1;verticalAlign=middle;horizontal=1;direction=west;labelPosition=center;verticalLabelPosition=middle;align=center;" vertex="1" parent="1">
          <mxGeometry x="202.5" y="835.5" width="15" height="115.5" as="geometry" />
        </mxCell>
        <mxCell id="rO3-1Kn5tQKQPEE35pFG-37" value="" style="endArrow=none;dashed=1;html=1;rounded=0;shadow=1;labelBackgroundColor=default;fontFamily=Helvetica;fontSize=11;fontColor=default;endSize=8;strokeColor=#000000;elbow=vertical;entryX=0.5;entryY=-0.098;entryDx=0;entryDy=0;entryPerimeter=0;" edge="1" parent="1" source="rO3-1Kn5tQKQPEE35pFG-36" target="rO3-1Kn5tQKQPEE35pFG-21">
          <mxGeometry width="50" height="50" relative="1" as="geometry">
            <mxPoint x="370" y="831" as="sourcePoint" />
            <mxPoint x="200" y="751" as="targetPoint" />
          </mxGeometry>
        </mxCell>
        <mxCell id="rO3-1Kn5tQKQPEE35pFG-38" value="" style="points=[];perimeter=orthogonalPerimeter;spacingTop=0;spacing=1;verticalAlign=middle;horizontal=1;direction=west;labelPosition=center;verticalLabelPosition=middle;align=center;" vertex="1" parent="1">
          <mxGeometry x="356.25" y="865.5" width="15" height="51" as="geometry" />
        </mxCell>
        <mxCell id="rO3-1Kn5tQKQPEE35pFG-39" value="" style="endArrow=none;dashed=1;html=1;rounded=0;shadow=1;labelBackgroundColor=default;fontFamily=Helvetica;fontSize=11;fontColor=default;endSize=8;strokeColor=#000000;elbow=vertical;entryX=0.472;entryY=-0.007;entryDx=0;entryDy=0;entryPerimeter=0;" edge="1" parent="1" source="rO3-1Kn5tQKQPEE35pFG-38" target="rO3-1Kn5tQKQPEE35pFG-7">
          <mxGeometry width="50" height="50" relative="1" as="geometry">
            <mxPoint x="523.75" y="861" as="sourcePoint" />
            <mxPoint x="363.75" y="780.998" as="targetPoint" />
          </mxGeometry>
        </mxCell>
        <mxCell id="rO3-1Kn5tQKQPEE35pFG-40" value="8. 添加用户" style="html=1;verticalAlign=bottom;endArrow=block;rounded=0;shadow=1;labelBackgroundColor=default;fontFamily=Helvetica;fontSize=11;fontColor=default;endSize=8;strokeColor=#000000;elbow=vertical;" edge="1" parent="1">
          <mxGeometry width="80" relative="1" as="geometry">
            <mxPoint x="219" y="881" as="sourcePoint" />
            <mxPoint x="359" y="881" as="targetPoint" />
          </mxGeometry>
        </mxCell>
        <mxCell id="rO3-1Kn5tQKQPEE35pFG-41" value="9. 返回添加成功" style="html=1;verticalAlign=bottom;endArrow=open;dashed=1;endSize=8;rounded=0;shadow=1;labelBackgroundColor=default;fontFamily=Helvetica;fontSize=11;fontColor=default;strokeColor=#000000;elbow=vertical;" edge="1" parent="1">
          <mxGeometry relative="1" as="geometry">
            <mxPoint x="356.25" y="911" as="sourcePoint" />
            <mxPoint x="220" y="911" as="targetPoint" />
          </mxGeometry>
        </mxCell>
        <mxCell id="rO3-1Kn5tQKQPEE35pFG-44" value="" style="html=1;points=[];perimeter=orthogonalPerimeter;fontFamily=Helvetica;fontSize=11;fontColor=default;" vertex="1" parent="1">
          <mxGeometry x="515" y="921" width="10" height="50" as="geometry" />
        </mxCell>
        <mxCell id="rO3-1Kn5tQKQPEE35pFG-46" value="5.初始化页面" style="edgeStyle=orthogonalEdgeStyle;html=1;align=left;spacingLeft=2;endArrow=block;rounded=0;labelBackgroundColor=default;fontFamily=Helvetica;fontSize=11;fontColor=default;endSize=8;strokeColor=#000000;elbow=vertical;" edge="1" parent="1">
          <mxGeometry x="-0.0588" relative="1" as="geometry">
            <mxPoint x="525" y="731" as="sourcePoint" />
            <Array as="points">
              <mxPoint x="550" y="731" />
              <mxPoint x="550" y="766" />
              <mxPoint x="530" y="766" />
            </Array>
            <mxPoint x="530" y="766" as="targetPoint" />
            <mxPoint as="offset" />
          </mxGeometry>
        </mxCell>
        <mxCell id="rO3-1Kn5tQKQPEE35pFG-49" value="10. 返回添加成功" style="html=1;verticalAlign=bottom;endArrow=block;rounded=0;shadow=1;labelBackgroundColor=default;fontFamily=Helvetica;fontSize=11;fontColor=default;endSize=8;strokeColor=#000000;elbow=vertical;" edge="1" parent="1">
          <mxGeometry width="80" relative="1" as="geometry">
            <mxPoint x="220" y="941" as="sourcePoint" />
            <mxPoint x="513.75" y="941" as="targetPoint" />
          </mxGeometry>
        </mxCell>
        <mxCell id="FmllpsRpJdHIz8ffRg1i-1" value="" style="endArrow=none;dashed=1;html=1;rounded=0;shadow=1;labelBackgroundColor=default;fontFamily=Helvetica;fontSize=11;fontColor=default;endSize=8;strokeColor=#000000;elbow=vertical;exitX=0.54;exitY=0;exitDx=0;exitDy=0;exitPerimeter=0;" edge="1" parent="1" source="rO3-1Kn5tQKQPEE35pFG-44">
          <mxGeometry width="50" height="50" relative="1" as="geometry">
            <mxPoint x="470" y="951" as="sourcePoint" />
            <mxPoint x="520" y="901" as="targetPoint" />
          </mxGeometry>
        </mxCell>
      </root>
    </mxGraphModel>
  </diagram>
  <diagram id="Wsjy9_Cgt-CuE3LKIKfR" name="Page-4">
    <mxGraphModel dx="1504" dy="688" grid="1" gridSize="10" guides="1" tooltips="1" connect="1" arrows="1" fold="1" page="1" pageScale="1" pageWidth="827" pageHeight="1169" math="0" shadow="0">
      <root>
        <mxCell id="0" />
        <mxCell id="1" parent="0" />
        <mxCell id="HcQy1P9e45_NrfQxACJ5-28" value="用户" style="shape=umlLifeline;participant=umlActor;perimeter=lifelinePerimeter;whiteSpace=wrap;html=1;container=1;collapsible=0;recursiveResize=0;verticalAlign=top;spacingTop=36;outlineConnect=0;" vertex="1" parent="1">
          <mxGeometry x="60" y="30" width="30" height="441" as="geometry" />
        </mxCell>
        <mxCell id="HcQy1P9e45_NrfQxACJ5-29" value="Control" style="shape=umlLifeline;perimeter=lifelinePerimeter;whiteSpace=wrap;html=1;container=1;collapsible=0;recursiveResize=0;outlineConnect=0;" vertex="1" parent="1">
          <mxGeometry x="160" y="40" width="100" height="100" as="geometry" />
        </mxCell>
        <mxCell id="HcQy1P9e45_NrfQxACJ5-30" value="&lt;font style=&quot;vertical-align: inherit;&quot;&gt;&lt;font style=&quot;vertical-align: inherit;&quot;&gt;&lt;font style=&quot;vertical-align: inherit;&quot;&gt;&lt;font style=&quot;vertical-align: inherit;&quot;&gt;1. 发送数据&lt;br&gt;初始化请求&lt;/font&gt;&lt;/font&gt;&lt;/font&gt;&lt;/font&gt;" style="html=1;verticalAlign=bottom;endArrow=block;rounded=0;elbow=vertical;spacingTop=3;" edge="1" parent="1" source="HcQy1P9e45_NrfQxACJ5-28" target="HcQy1P9e45_NrfQxACJ5-34">
          <mxGeometry x="-0.0722" y="10" width="80" relative="1" as="geometry">
            <mxPoint x="93.99000000000001" y="148.4000000000001" as="sourcePoint" />
            <mxPoint x="229.5" y="140" as="targetPoint" />
            <mxPoint y="1" as="offset" />
            <Array as="points">
              <mxPoint x="140" y="141" />
            </Array>
          </mxGeometry>
        </mxCell>
        <mxCell id="HcQy1P9e45_NrfQxACJ5-31" value="&lt;font style=&quot;vertical-align: inherit;&quot;&gt;&lt;font style=&quot;vertical-align: inherit;&quot;&gt;&lt;font style=&quot;vertical-align: inherit;&quot;&gt;&lt;font style=&quot;vertical-align: inherit;&quot;&gt;mysql数据库&lt;/font&gt;&lt;/font&gt;&lt;/font&gt;&lt;/font&gt;" style="shape=umlLifeline;perimeter=lifelinePerimeter;whiteSpace=wrap;html=1;container=1;collapsible=0;recursiveResize=0;outlineConnect=0;" vertex="1" parent="1">
          <mxGeometry x="314" y="40" width="100" height="100" as="geometry" />
        </mxCell>
        <mxCell id="HcQy1P9e45_NrfQxACJ5-32" value="" style="points=[];perimeter=orthogonalPerimeter;spacingTop=0;spacing=1;verticalAlign=middle;horizontal=1;direction=west;labelPosition=center;verticalLabelPosition=middle;align=center;" vertex="1" parent="1">
          <mxGeometry x="356.75" y="140" width="14.5" height="91" as="geometry" />
        </mxCell>
        <mxCell id="HcQy1P9e45_NrfQxACJ5-33" value="教学文件管理&lt;br&gt;界面" style="shape=umlLifeline;perimeter=lifelinePerimeter;whiteSpace=wrap;html=1;container=1;collapsible=0;recursiveResize=0;outlineConnect=0;" vertex="1" parent="1">
          <mxGeometry x="470" y="40" width="100" height="171" as="geometry" />
        </mxCell>
        <mxCell id="HcQy1P9e45_NrfQxACJ5-34" value="" style="points=[];perimeter=orthogonalPerimeter;spacingTop=0;spacing=1;verticalAlign=middle;horizontal=1;direction=west;labelPosition=center;verticalLabelPosition=middle;align=center;" vertex="1" parent="1">
          <mxGeometry x="202.5" y="140" width="15" height="31" as="geometry" />
        </mxCell>
        <mxCell id="HcQy1P9e45_NrfQxACJ5-35" value="2. 获得当前用户&lt;br&gt;初始化数据" style="html=1;verticalAlign=bottom;endArrow=block;rounded=0;labelBackgroundColor=default;fontFamily=Helvetica;fontSize=11;fontColor=default;endSize=8;strokeColor=#000000;elbow=vertical;" edge="1" parent="1" source="HcQy1P9e45_NrfQxACJ5-34" target="HcQy1P9e45_NrfQxACJ5-32">
          <mxGeometry width="80" relative="1" as="geometry">
            <mxPoint x="280" y="171" as="sourcePoint" />
            <mxPoint x="350" y="171" as="targetPoint" />
          </mxGeometry>
        </mxCell>
        <mxCell id="HcQy1P9e45_NrfQxACJ5-36" value="" style="endArrow=none;dashed=1;html=1;rounded=0;labelBackgroundColor=default;fontFamily=Helvetica;fontSize=11;fontColor=default;endSize=8;strokeColor=#000000;elbow=vertical;" edge="1" parent="1">
          <mxGeometry width="50" height="50" relative="1" as="geometry">
            <mxPoint x="209.5" y="200.5" as="sourcePoint" />
            <mxPoint x="209.5" y="170.5" as="targetPoint" />
          </mxGeometry>
        </mxCell>
        <mxCell id="HcQy1P9e45_NrfQxACJ5-37" value="" style="points=[];perimeter=orthogonalPerimeter;spacingTop=0;spacing=1;verticalAlign=middle;horizontal=1;direction=west;labelPosition=center;verticalLabelPosition=middle;align=center;" vertex="1" parent="1">
          <mxGeometry x="202.5" y="195" width="15" height="51" as="geometry" />
        </mxCell>
        <mxCell id="HcQy1P9e45_NrfQxACJ5-38" value="3. 返回初始化数据" style="html=1;verticalAlign=bottom;endArrow=open;dashed=1;endSize=8;rounded=0;labelBackgroundColor=default;fontFamily=Helvetica;fontSize=11;fontColor=default;strokeColor=#000000;elbow=vertical;" edge="1" parent="1">
          <mxGeometry x="-0.0238" relative="1" as="geometry">
            <mxPoint x="356.75" y="220" as="sourcePoint" />
            <mxPoint x="220" y="220" as="targetPoint" />
            <mxPoint as="offset" />
          </mxGeometry>
        </mxCell>
        <mxCell id="HcQy1P9e45_NrfQxACJ5-39" value="4. 初始化数据返回页面" style="html=1;verticalAlign=bottom;endArrow=block;rounded=0;labelBackgroundColor=default;fontFamily=Helvetica;fontSize=11;fontColor=default;endSize=8;strokeColor=#000000;elbow=vertical;" edge="1" parent="1">
          <mxGeometry x="-0.0345" y="-30" width="80" relative="1" as="geometry">
            <mxPoint x="225" y="240.5" as="sourcePoint" />
            <mxPoint x="515" y="240.5" as="targetPoint" />
            <mxPoint as="offset" />
          </mxGeometry>
        </mxCell>
        <mxCell id="HcQy1P9e45_NrfQxACJ5-40" value="" style="html=1;points=[];perimeter=orthogonalPerimeter;fontFamily=Helvetica;fontSize=11;fontColor=default;" vertex="1" parent="1">
          <mxGeometry x="515" y="211" width="10" height="70" as="geometry" />
        </mxCell>
        <mxCell id="HcQy1P9e45_NrfQxACJ5-41" value="15. 刷新页面" style="edgeStyle=orthogonalEdgeStyle;html=1;align=left;spacingLeft=2;endArrow=block;rounded=0;labelBackgroundColor=default;fontFamily=Helvetica;fontSize=11;fontColor=default;endSize=8;strokeColor=#000000;elbow=vertical;" edge="1" parent="1">
          <mxGeometry x="-0.0588" relative="1" as="geometry">
            <mxPoint x="525" y="537.5" as="sourcePoint" />
            <Array as="points">
              <mxPoint x="550" y="537.5" />
              <mxPoint x="550" y="572.5" />
              <mxPoint x="530" y="572.5" />
            </Array>
            <mxPoint x="530" y="572.5" as="targetPoint" />
            <mxPoint as="offset" />
          </mxGeometry>
        </mxCell>
        <mxCell id="HcQy1P9e45_NrfQxACJ5-42" value="" style="html=1;points=[];perimeter=orthogonalPerimeter;fontFamily=Helvetica;fontSize=11;fontColor=default;" vertex="1" parent="1">
          <mxGeometry x="515" y="321" width="10" height="80" as="geometry" />
        </mxCell>
        <mxCell id="HcQy1P9e45_NrfQxACJ5-43" value="6. 选择文件" style="html=1;verticalAlign=bottom;endArrow=block;entryX=0.1;entryY=0.123;rounded=0;labelBackgroundColor=default;fontFamily=Helvetica;fontSize=11;fontColor=default;endSize=8;strokeColor=#000000;elbow=vertical;entryDx=0;entryDy=0;entryPerimeter=0;" edge="1" parent="1" source="HcQy1P9e45_NrfQxACJ5-28" target="XwaewyuB54nfLKkCclk6-4">
          <mxGeometry x="-0.0216" y="1" relative="1" as="geometry">
            <mxPoint x="445" y="321" as="sourcePoint" />
            <mxPoint x="1" as="offset" />
          </mxGeometry>
        </mxCell>
        <mxCell id="HcQy1P9e45_NrfQxACJ5-44" value="9. 符合要求，文件流传递" style="html=1;verticalAlign=bottom;endArrow=open;dashed=1;endSize=8;rounded=0;labelBackgroundColor=default;fontFamily=Helvetica;fontSize=11;fontColor=default;strokeColor=#000000;elbow=vertical;" edge="1" parent="1">
          <mxGeometry relative="1" as="geometry">
            <mxPoint x="220" y="361" as="targetPoint" />
            <mxPoint x="510" y="361" as="sourcePoint" />
          </mxGeometry>
        </mxCell>
        <mxCell id="HcQy1P9e45_NrfQxACJ5-45" value="" style="endArrow=none;dashed=1;html=1;rounded=0;shadow=1;labelBackgroundColor=default;fontFamily=Helvetica;fontSize=11;fontColor=default;endSize=8;strokeColor=#000000;elbow=vertical;" edge="1" parent="1">
          <mxGeometry width="50" height="50" relative="1" as="geometry">
            <mxPoint x="519.5" y="321" as="sourcePoint" />
            <mxPoint x="520" y="281" as="targetPoint" />
          </mxGeometry>
        </mxCell>
        <mxCell id="HcQy1P9e45_NrfQxACJ5-46" value="" style="points=[];perimeter=orthogonalPerimeter;spacingTop=0;spacing=1;verticalAlign=middle;horizontal=1;direction=west;labelPosition=center;verticalLabelPosition=middle;align=center;" vertex="1" parent="1">
          <mxGeometry x="202.5" y="335.5" width="15" height="234.5" as="geometry" />
        </mxCell>
        <mxCell id="HcQy1P9e45_NrfQxACJ5-47" value="" style="endArrow=none;dashed=1;html=1;rounded=0;shadow=1;labelBackgroundColor=default;fontFamily=Helvetica;fontSize=11;fontColor=default;endSize=8;strokeColor=#000000;elbow=vertical;entryX=0.5;entryY=-0.098;entryDx=0;entryDy=0;entryPerimeter=0;" edge="1" parent="1" source="HcQy1P9e45_NrfQxACJ5-46" target="HcQy1P9e45_NrfQxACJ5-37">
          <mxGeometry width="50" height="50" relative="1" as="geometry">
            <mxPoint x="370" y="331" as="sourcePoint" />
            <mxPoint x="200" y="251" as="targetPoint" />
          </mxGeometry>
        </mxCell>
        <mxCell id="HcQy1P9e45_NrfQxACJ5-48" value="" style="points=[];perimeter=orthogonalPerimeter;spacingTop=0;spacing=1;verticalAlign=middle;horizontal=1;direction=west;labelPosition=center;verticalLabelPosition=middle;align=center;" vertex="1" parent="1">
          <mxGeometry x="356.75" y="479" width="15" height="51" as="geometry" />
        </mxCell>
        <mxCell id="HcQy1P9e45_NrfQxACJ5-49" value="" style="endArrow=none;dashed=1;html=1;rounded=0;shadow=1;labelBackgroundColor=default;fontFamily=Helvetica;fontSize=11;fontColor=default;endSize=8;strokeColor=#000000;elbow=vertical;entryX=0.472;entryY=-0.007;entryDx=0;entryDy=0;entryPerimeter=0;" edge="1" parent="1" source="HcQy1P9e45_NrfQxACJ5-48" target="HcQy1P9e45_NrfQxACJ5-32">
          <mxGeometry width="50" height="50" relative="1" as="geometry">
            <mxPoint x="523.75" y="361" as="sourcePoint" />
            <mxPoint x="363.75" y="280.99800000000005" as="targetPoint" />
          </mxGeometry>
        </mxCell>
        <mxCell id="HcQy1P9e45_NrfQxACJ5-52" value="" style="html=1;points=[];perimeter=orthogonalPerimeter;fontFamily=Helvetica;fontSize=11;fontColor=default;" vertex="1" parent="1">
          <mxGeometry x="515" y="510" width="10" height="80" as="geometry" />
        </mxCell>
        <mxCell id="HcQy1P9e45_NrfQxACJ5-53" value="5.初始化页面" style="edgeStyle=orthogonalEdgeStyle;html=1;align=left;spacingLeft=2;endArrow=block;rounded=0;labelBackgroundColor=default;fontFamily=Helvetica;fontSize=11;fontColor=default;endSize=8;strokeColor=#000000;elbow=vertical;" edge="1" parent="1">
          <mxGeometry x="-0.0588" relative="1" as="geometry">
            <mxPoint x="525" y="231" as="sourcePoint" />
            <Array as="points">
              <mxPoint x="550" y="231" />
              <mxPoint x="550" y="266" />
              <mxPoint x="530" y="266" />
            </Array>
            <mxPoint x="530" y="266" as="targetPoint" />
            <mxPoint as="offset" />
          </mxGeometry>
        </mxCell>
        <mxCell id="HcQy1P9e45_NrfQxACJ5-55" value="本地&lt;span style=&quot;color: rgba(0, 0, 0, 0); font-family: monospace; font-size: 0px; text-align: start;&quot;&gt;%3CmxGraphModel%3E%3Croot%3E%3CmxCell%20id%3D%220%22%2F%3E%3CmxCell%20id%3D%221%22%20parent%3D%220%22%2F%3E%3CmxCell%20id%3D%222%22%20value%3D%22%E6%95%99%E5%AD%A6%E6%96%87%E4%BB%B6%E7%AE%A1%E7%90%86%26lt%3Bbr%26gt%3B%E7%95%8C%E9%9D%A2%22%20style%3D%22shape%3DumlLifeline%3Bperimeter%3DlifelinePerimeter%3BwhiteSpace%3Dwrap%3Bhtml%3D1%3Bcontainer%3D1%3Bcollapsible%3D0%3BrecursiveResize%3D0%3BoutlineConnect%3D0%3B%22%20vertex%3D%221%22%20parent%3D%221%22%3E%3CmxGeometry%20x%3D%22470%22%20y%3D%2240%22%20width%3D%22100%22%20height%3D%22171%22%20as%3D%22geometry%22%2F%3E%3C%2FmxCell%3E%3C%2Froot%3E%3C%2FmxGraphModel%3E&lt;/span&gt;" style="shape=umlLifeline;perimeter=lifelinePerimeter;whiteSpace=wrap;html=1;container=1;collapsible=0;recursiveResize=0;outlineConnect=0;" vertex="1" parent="1">
          <mxGeometry x="600" y="40" width="100" height="260" as="geometry" />
        </mxCell>
        <mxCell id="HcQy1P9e45_NrfQxACJ5-56" value="服务器" style="shape=umlLifeline;perimeter=lifelinePerimeter;whiteSpace=wrap;html=1;container=1;collapsible=0;recursiveResize=0;outlineConnect=0;" vertex="1" parent="1">
          <mxGeometry x="720" y="40" width="100" height="350" as="geometry" />
        </mxCell>
        <mxCell id="XwaewyuB54nfLKkCclk6-1" value="" style="endArrow=none;dashed=1;html=1;rounded=0;shadow=1;labelBackgroundColor=default;fontFamily=Helvetica;fontSize=11;fontColor=default;endSize=8;strokeColor=#000000;elbow=vertical;" edge="1" parent="1" source="HcQy1P9e45_NrfQxACJ5-52">
          <mxGeometry width="50" height="50" relative="1" as="geometry">
            <mxPoint x="520" y="420" as="sourcePoint" />
            <mxPoint x="520" y="401" as="targetPoint" />
          </mxGeometry>
        </mxCell>
        <mxCell id="XwaewyuB54nfLKkCclk6-4" value="" style="html=1;points=[];perimeter=orthogonalPerimeter;fontFamily=Helvetica;fontSize=11;fontColor=default;" vertex="1" parent="1">
          <mxGeometry x="645" y="300" width="10" height="80" as="geometry" />
        </mxCell>
        <mxCell id="XwaewyuB54nfLKkCclk6-6" value="7. 传递文件" style="html=1;verticalAlign=bottom;endArrow=open;dashed=1;endSize=8;rounded=0;shadow=1;labelBackgroundColor=default;fontFamily=Helvetica;fontSize=11;fontColor=default;strokeColor=#000000;elbow=vertical;" edge="1" parent="1">
          <mxGeometry relative="1" as="geometry">
            <mxPoint x="640" y="340" as="sourcePoint" />
            <mxPoint x="525" y="339.5" as="targetPoint" />
          </mxGeometry>
        </mxCell>
        <mxCell id="XwaewyuB54nfLKkCclk6-7" value="8. 判断是否&lt;br&gt;符合要求" style="edgeStyle=orthogonalEdgeStyle;html=1;align=left;spacingLeft=2;endArrow=block;rounded=0;labelBackgroundColor=default;fontFamily=Helvetica;fontSize=11;fontColor=default;endSize=8;strokeColor=#000000;elbow=vertical;" edge="1" parent="1">
          <mxGeometry x="-0.0588" relative="1" as="geometry">
            <mxPoint x="525" y="365.5" as="sourcePoint" />
            <Array as="points">
              <mxPoint x="550" y="365.5" />
              <mxPoint x="550" y="400.5" />
              <mxPoint x="530" y="400.5" />
            </Array>
            <mxPoint x="530" y="400.5" as="targetPoint" />
            <mxPoint as="offset" />
          </mxGeometry>
        </mxCell>
        <mxCell id="XwaewyuB54nfLKkCclk6-9" value="10.上传到服务器&amp;nbsp;" style="html=1;verticalAlign=bottom;endArrow=block;rounded=0;shadow=1;labelBackgroundColor=default;fontFamily=Helvetica;fontSize=11;fontColor=default;endSize=8;strokeColor=#000000;elbow=vertical;startArrow=none;" edge="1" parent="1" source="XwaewyuB54nfLKkCclk6-8">
          <mxGeometry x="1" y="-342" width="80" relative="1" as="geometry">
            <mxPoint x="219.5" y="427.25" as="sourcePoint" />
            <mxPoint x="772" y="427.25" as="targetPoint" />
            <mxPoint y="2" as="offset" />
          </mxGeometry>
        </mxCell>
        <mxCell id="XwaewyuB54nfLKkCclk6-10" value="11. 返回上传成功" style="html=1;verticalAlign=bottom;endArrow=open;dashed=1;endSize=8;rounded=0;shadow=1;labelBackgroundColor=default;fontFamily=Helvetica;fontSize=11;fontColor=default;strokeColor=#000000;elbow=vertical;" edge="1" parent="1">
          <mxGeometry relative="1" as="geometry">
            <mxPoint x="772" y="460" as="sourcePoint" />
            <mxPoint x="220" y="460" as="targetPoint" />
          </mxGeometry>
        </mxCell>
        <mxCell id="XwaewyuB54nfLKkCclk6-11" value="12. 文件相关信息存储" style="html=1;verticalAlign=bottom;endArrow=block;rounded=0;shadow=1;labelBackgroundColor=default;fontFamily=Helvetica;fontSize=11;fontColor=default;endSize=8;strokeColor=#000000;elbow=vertical;entryX=0.917;entryY=0.757;entryDx=0;entryDy=0;entryPerimeter=0;" edge="1" parent="1" target="HcQy1P9e45_NrfQxACJ5-48">
          <mxGeometry width="80" relative="1" as="geometry">
            <mxPoint x="220" y="490" as="sourcePoint" />
            <mxPoint x="300" y="490" as="targetPoint" />
          </mxGeometry>
        </mxCell>
        <mxCell id="XwaewyuB54nfLKkCclk6-12" value="13. 返回文件存储成功" style="html=1;verticalAlign=bottom;endArrow=open;dashed=1;endSize=8;rounded=0;shadow=1;labelBackgroundColor=default;fontFamily=Helvetica;fontSize=11;fontColor=default;strokeColor=#000000;elbow=vertical;" edge="1" parent="1">
          <mxGeometry relative="1" as="geometry">
            <mxPoint x="356.75" y="520" as="sourcePoint" />
            <mxPoint x="220" y="520" as="targetPoint" />
          </mxGeometry>
        </mxCell>
        <mxCell id="XwaewyuB54nfLKkCclk6-13" value="14. 返回文件上传成功" style="html=1;verticalAlign=bottom;endArrow=block;rounded=0;shadow=1;labelBackgroundColor=default;fontFamily=Helvetica;fontSize=11;fontColor=default;endSize=8;strokeColor=#000000;elbow=vertical;" edge="1" parent="1">
          <mxGeometry width="80" relative="1" as="geometry">
            <mxPoint x="217.5" y="560" as="sourcePoint" />
            <mxPoint x="510" y="560" as="targetPoint" />
          </mxGeometry>
        </mxCell>
        <mxCell id="XwaewyuB54nfLKkCclk6-8" value="" style="html=1;points=[];perimeter=orthogonalPerimeter;fontFamily=Helvetica;fontSize=11;fontColor=default;" vertex="1" parent="1">
          <mxGeometry x="765" y="390" width="10" height="80" as="geometry" />
        </mxCell>
        <mxCell id="XwaewyuB54nfLKkCclk6-16" value="" style="html=1;verticalAlign=bottom;endArrow=block;rounded=0;shadow=1;labelBackgroundColor=default;fontFamily=Helvetica;fontSize=11;fontColor=default;endSize=8;strokeColor=#000000;elbow=vertical;" edge="1" parent="1">
          <mxGeometry width="80" relative="1" as="geometry">
            <mxPoint x="220" y="430" as="sourcePoint" />
            <mxPoint x="760" y="430" as="targetPoint" />
          </mxGeometry>
        </mxCell>
      </root>
    </mxGraphModel>
  </diagram>
  <diagram id="oWOiTLJto-kDfYCYzOYQ" name="Page-5">
    <mxGraphModel dx="1278" dy="585" grid="1" gridSize="10" guides="1" tooltips="1" connect="1" arrows="1" fold="1" page="1" pageScale="1" pageWidth="827" pageHeight="1169" math="0" shadow="0">
      <root>
        <mxCell id="0" />
        <mxCell id="1" parent="0" />
        <mxCell id="a0PMoFdgcxB-xL_lOZZJ-1" value="浏&#xa;&#xa;&#xa;&#xa;览&#xa;&#xa;&#xa;&#xa;&#xa;器" style="points=[];perimeter=orthogonalPerimeter;spacingTop=0;spacing=1;verticalAlign=middle;horizontal=1;direction=west;labelPosition=center;verticalLabelPosition=middle;align=center;" vertex="1" parent="1">
          <mxGeometry x="60" y="190" width="30" height="230" as="geometry" />
        </mxCell>
        <mxCell id="a0PMoFdgcxB-xL_lOZZJ-2" value="用户" style="shape=umlLifeline;participant=umlActor;perimeter=lifelinePerimeter;whiteSpace=wrap;html=1;container=1;collapsible=0;recursiveResize=0;verticalAlign=top;spacingTop=36;outlineConnect=0;" vertex="1" parent="1">
          <mxGeometry x="60" y="90" width="30" height="100" as="geometry" />
        </mxCell>
        <mxCell id="a0PMoFdgcxB-xL_lOZZJ-3" value="UserFileControl" style="shape=umlLifeline;perimeter=lifelinePerimeter;whiteSpace=wrap;html=1;container=1;collapsible=0;recursiveResize=0;outlineConnect=0;" vertex="1" parent="1">
          <mxGeometry x="160" y="100" width="100" height="100" as="geometry" />
        </mxCell>
        <mxCell id="a0PMoFdgcxB-xL_lOZZJ-4" value="" style="points=[];perimeter=orthogonalPerimeter;spacingTop=0;spacing=1;verticalAlign=middle;horizontal=1;direction=west;labelPosition=center;verticalLabelPosition=middle;align=center;" vertex="1" parent="1">
          <mxGeometry x="195" y="200" width="30" height="70" as="geometry" />
        </mxCell>
        <mxCell id="a0PMoFdgcxB-xL_lOZZJ-5" value="&lt;font style=&quot;vertical-align: inherit;&quot;&gt;&lt;font style=&quot;vertical-align: inherit;&quot;&gt;&lt;font style=&quot;vertical-align: inherit;&quot;&gt;&lt;font style=&quot;vertical-align: inherit;&quot;&gt;1. 点击审核&lt;/font&gt;&lt;/font&gt;&lt;/font&gt;&lt;/font&gt;" style="html=1;verticalAlign=bottom;endArrow=block;rounded=0;elbow=vertical;spacingTop=3;" edge="1" parent="1" target="a0PMoFdgcxB-xL_lOZZJ-4">
          <mxGeometry x="-0.0722" y="10" width="80" relative="1" as="geometry">
            <mxPoint x="90" y="239.5" as="sourcePoint" />
            <mxPoint x="229.5" y="200" as="targetPoint" />
            <mxPoint y="1" as="offset" />
          </mxGeometry>
        </mxCell>
        <mxCell id="a0PMoFdgcxB-xL_lOZZJ-6" value="&lt;font style=&quot;vertical-align: inherit;&quot;&gt;&lt;font style=&quot;vertical-align: inherit;&quot;&gt;&lt;font style=&quot;vertical-align: inherit;&quot;&gt;&lt;font style=&quot;vertical-align: inherit;&quot;&gt;UserFileService&lt;/font&gt;&lt;/font&gt;&lt;/font&gt;&lt;/font&gt;" style="shape=umlLifeline;perimeter=lifelinePerimeter;whiteSpace=wrap;html=1;container=1;collapsible=0;recursiveResize=0;outlineConnect=0;" vertex="1" parent="1">
          <mxGeometry x="314" y="100" width="100" height="100" as="geometry" />
        </mxCell>
        <mxCell id="a0PMoFdgcxB-xL_lOZZJ-7" value="" style="points=[];perimeter=orthogonalPerimeter;spacingTop=0;spacing=1;verticalAlign=middle;horizontal=1;direction=west;labelPosition=center;verticalLabelPosition=middle;align=center;" vertex="1" parent="1">
          <mxGeometry x="349" y="200" width="30" height="160" as="geometry" />
        </mxCell>
        <mxCell id="a0PMoFdgcxB-xL_lOZZJ-8" value="2. 获取文件Id" style="html=1;verticalAlign=bottom;endArrow=block;rounded=0;elbow=vertical;" edge="1" parent="1" source="a0PMoFdgcxB-xL_lOZZJ-4" target="a0PMoFdgcxB-xL_lOZZJ-7">
          <mxGeometry x="0.0484" width="80" relative="1" as="geometry">
            <mxPoint x="314" y="260" as="sourcePoint" />
            <mxPoint x="470" y="260" as="targetPoint" />
            <Array as="points">
              <mxPoint x="260" y="250" />
            </Array>
            <mxPoint as="offset" />
          </mxGeometry>
        </mxCell>
        <mxCell id="a0PMoFdgcxB-xL_lOZZJ-9" value="UserFileMapper" style="shape=umlLifeline;perimeter=lifelinePerimeter;whiteSpace=wrap;html=1;container=1;collapsible=0;recursiveResize=0;outlineConnect=0;" vertex="1" parent="1">
          <mxGeometry x="470" y="100" width="100" height="140" as="geometry" />
        </mxCell>
        <mxCell id="a0PMoFdgcxB-xL_lOZZJ-10" value="" style="points=[];perimeter=orthogonalPerimeter;spacingTop=0;spacing=1;verticalAlign=middle;horizontal=1;direction=west;labelPosition=center;verticalLabelPosition=middle;align=center;" vertex="1" parent="1">
          <mxGeometry x="505" y="240" width="30" height="170" as="geometry" />
        </mxCell>
        <mxCell id="a0PMoFdgcxB-xL_lOZZJ-11" value="3. 调用对应的sql" style="html=1;verticalAlign=bottom;endArrow=block;rounded=0;labelBackgroundColor=default;fontFamily=Helvetica;fontSize=11;fontColor=default;endSize=8;strokeColor=#000000;shape=connector;elbow=vertical;" edge="1" parent="1">
          <mxGeometry width="80" relative="1" as="geometry">
            <mxPoint x="380" y="260" as="sourcePoint" />
            <mxPoint x="505" y="260" as="targetPoint" />
          </mxGeometry>
        </mxCell>
        <mxCell id="a0PMoFdgcxB-xL_lOZZJ-12" value="4. 根据文件Id在数据库中&lt;br&gt;查找相应信息并返回" style="edgeStyle=orthogonalEdgeStyle;html=1;align=left;spacingLeft=2;endArrow=block;rounded=0;labelBackgroundColor=default;fontFamily=Helvetica;fontSize=11;fontColor=default;endSize=8;strokeColor=#000000;shape=connector;elbow=vertical;exitX=0;exitY=0.636;exitDx=0;exitDy=0;exitPerimeter=0;" edge="1" parent="1" source="a0PMoFdgcxB-xL_lOZZJ-10">
          <mxGeometry relative="1" as="geometry">
            <mxPoint x="540" y="280" as="sourcePoint" />
            <Array as="points">
              <mxPoint x="535" y="280" />
              <mxPoint x="585" y="280" />
              <mxPoint x="585" y="380" />
              <mxPoint x="535" y="380" />
            </Array>
            <mxPoint x="535" y="380" as="targetPoint" />
          </mxGeometry>
        </mxCell>
        <mxCell id="a0PMoFdgcxB-xL_lOZZJ-13" value="5. 返回文件信息" style="html=1;verticalAlign=bottom;endArrow=open;dashed=1;endSize=8;rounded=0;labelBackgroundColor=default;fontFamily=Helvetica;fontSize=11;fontColor=default;strokeColor=#000000;shape=connector;elbow=vertical;" edge="1" parent="1" source="a0PMoFdgcxB-xL_lOZZJ-10">
          <mxGeometry relative="1" as="geometry">
            <mxPoint x="170" y="400" as="sourcePoint" />
            <mxPoint x="90" y="400" as="targetPoint" />
          </mxGeometry>
        </mxCell>
        <mxCell id="a0PMoFdgcxB-xL_lOZZJ-14" value="用户" style="shape=umlLifeline;participant=umlActor;perimeter=lifelinePerimeter;whiteSpace=wrap;html=1;container=1;collapsible=0;recursiveResize=0;verticalAlign=top;spacingTop=36;outlineConnect=0;" vertex="1" parent="1">
          <mxGeometry x="60" y="530" width="30" height="441" as="geometry" />
        </mxCell>
        <mxCell id="a0PMoFdgcxB-xL_lOZZJ-15" value="UserControl" style="shape=umlLifeline;perimeter=lifelinePerimeter;whiteSpace=wrap;html=1;container=1;collapsible=0;recursiveResize=0;outlineConnect=0;" vertex="1" parent="1">
          <mxGeometry x="160" y="540" width="100" height="100" as="geometry" />
        </mxCell>
        <mxCell id="a0PMoFdgcxB-xL_lOZZJ-16" value="&lt;font style=&quot;vertical-align: inherit;&quot;&gt;&lt;font style=&quot;vertical-align: inherit;&quot;&gt;&lt;font style=&quot;vertical-align: inherit;&quot;&gt;&lt;font style=&quot;vertical-align: inherit;&quot;&gt;1. 发送数据&lt;br&gt;初始化请求&lt;/font&gt;&lt;/font&gt;&lt;/font&gt;&lt;/font&gt;" style="html=1;verticalAlign=bottom;endArrow=block;rounded=0;elbow=vertical;spacingTop=3;" edge="1" parent="1" source="a0PMoFdgcxB-xL_lOZZJ-14" target="a0PMoFdgcxB-xL_lOZZJ-20">
          <mxGeometry x="-0.0722" y="10" width="80" relative="1" as="geometry">
            <mxPoint x="93.99000000000001" y="648.4000000000001" as="sourcePoint" />
            <mxPoint x="229.5" y="640" as="targetPoint" />
            <mxPoint y="1" as="offset" />
            <Array as="points">
              <mxPoint x="140" y="641" />
            </Array>
          </mxGeometry>
        </mxCell>
        <mxCell id="a0PMoFdgcxB-xL_lOZZJ-17" value="&lt;font style=&quot;vertical-align: inherit;&quot;&gt;&lt;font style=&quot;vertical-align: inherit;&quot;&gt;&lt;font style=&quot;vertical-align: inherit;&quot;&gt;&lt;font style=&quot;vertical-align: inherit;&quot;&gt;mysql数据库&lt;/font&gt;&lt;/font&gt;&lt;/font&gt;&lt;/font&gt;" style="shape=umlLifeline;perimeter=lifelinePerimeter;whiteSpace=wrap;html=1;container=1;collapsible=0;recursiveResize=0;outlineConnect=0;" vertex="1" parent="1">
          <mxGeometry x="314" y="540" width="100" height="100" as="geometry" />
        </mxCell>
        <mxCell id="a0PMoFdgcxB-xL_lOZZJ-18" value="" style="points=[];perimeter=orthogonalPerimeter;spacingTop=0;spacing=1;verticalAlign=middle;horizontal=1;direction=west;labelPosition=center;verticalLabelPosition=middle;align=center;" vertex="1" parent="1">
          <mxGeometry x="356.75" y="640" width="14.5" height="91" as="geometry" />
        </mxCell>
        <mxCell id="a0PMoFdgcxB-xL_lOZZJ-19" value="用户管理界面" style="shape=umlLifeline;perimeter=lifelinePerimeter;whiteSpace=wrap;html=1;container=1;collapsible=0;recursiveResize=0;outlineConnect=0;" vertex="1" parent="1">
          <mxGeometry x="470" y="540" width="100" height="171" as="geometry" />
        </mxCell>
        <mxCell id="a0PMoFdgcxB-xL_lOZZJ-20" value="" style="points=[];perimeter=orthogonalPerimeter;spacingTop=0;spacing=1;verticalAlign=middle;horizontal=1;direction=west;labelPosition=center;verticalLabelPosition=middle;align=center;" vertex="1" parent="1">
          <mxGeometry x="202.5" y="640" width="15" height="31" as="geometry" />
        </mxCell>
        <mxCell id="a0PMoFdgcxB-xL_lOZZJ-21" value="2. 获得当前用户&lt;br&gt;初始化数据" style="html=1;verticalAlign=bottom;endArrow=block;rounded=0;labelBackgroundColor=default;fontFamily=Helvetica;fontSize=11;fontColor=default;endSize=8;strokeColor=#000000;elbow=vertical;" edge="1" parent="1" source="a0PMoFdgcxB-xL_lOZZJ-20" target="a0PMoFdgcxB-xL_lOZZJ-18">
          <mxGeometry width="80" relative="1" as="geometry">
            <mxPoint x="280" y="671" as="sourcePoint" />
            <mxPoint x="350" y="671" as="targetPoint" />
          </mxGeometry>
        </mxCell>
        <mxCell id="a0PMoFdgcxB-xL_lOZZJ-22" value="" style="endArrow=none;dashed=1;html=1;rounded=0;labelBackgroundColor=default;fontFamily=Helvetica;fontSize=11;fontColor=default;endSize=8;strokeColor=#000000;elbow=vertical;" edge="1" parent="1">
          <mxGeometry width="50" height="50" relative="1" as="geometry">
            <mxPoint x="209.5" y="700.5" as="sourcePoint" />
            <mxPoint x="209.5" y="670.5" as="targetPoint" />
          </mxGeometry>
        </mxCell>
        <mxCell id="a0PMoFdgcxB-xL_lOZZJ-23" value="" style="points=[];perimeter=orthogonalPerimeter;spacingTop=0;spacing=1;verticalAlign=middle;horizontal=1;direction=west;labelPosition=center;verticalLabelPosition=middle;align=center;" vertex="1" parent="1">
          <mxGeometry x="202.5" y="695" width="15" height="51" as="geometry" />
        </mxCell>
        <mxCell id="a0PMoFdgcxB-xL_lOZZJ-24" value="3. 返回初始化数据" style="html=1;verticalAlign=bottom;endArrow=open;dashed=1;endSize=8;rounded=0;labelBackgroundColor=default;fontFamily=Helvetica;fontSize=11;fontColor=default;strokeColor=#000000;elbow=vertical;" edge="1" parent="1">
          <mxGeometry x="-0.0238" relative="1" as="geometry">
            <mxPoint x="356.75" y="720" as="sourcePoint" />
            <mxPoint x="220" y="720" as="targetPoint" />
            <mxPoint as="offset" />
          </mxGeometry>
        </mxCell>
        <mxCell id="a0PMoFdgcxB-xL_lOZZJ-25" value="4. 初始化数据返回页面" style="html=1;verticalAlign=bottom;endArrow=block;rounded=0;labelBackgroundColor=default;fontFamily=Helvetica;fontSize=11;fontColor=default;endSize=8;strokeColor=#000000;elbow=vertical;" edge="1" parent="1">
          <mxGeometry x="-0.0345" y="-30" width="80" relative="1" as="geometry">
            <mxPoint x="225" y="740.5" as="sourcePoint" />
            <mxPoint x="515" y="740.5" as="targetPoint" />
            <mxPoint as="offset" />
          </mxGeometry>
        </mxCell>
        <mxCell id="a0PMoFdgcxB-xL_lOZZJ-26" value="" style="html=1;points=[];perimeter=orthogonalPerimeter;fontFamily=Helvetica;fontSize=11;fontColor=default;" vertex="1" parent="1">
          <mxGeometry x="515" y="711" width="10" height="70" as="geometry" />
        </mxCell>
        <mxCell id="a0PMoFdgcxB-xL_lOZZJ-27" value="11. 刷新页面" style="edgeStyle=orthogonalEdgeStyle;html=1;align=left;spacingLeft=2;endArrow=block;rounded=0;labelBackgroundColor=default;fontFamily=Helvetica;fontSize=11;fontColor=default;endSize=8;strokeColor=#000000;elbow=vertical;" edge="1" parent="1">
          <mxGeometry x="-0.0588" relative="1" as="geometry">
            <mxPoint x="525" y="928.5" as="sourcePoint" />
            <Array as="points">
              <mxPoint x="550" y="928.5" />
              <mxPoint x="550" y="963.5" />
              <mxPoint x="530" y="963.5" />
            </Array>
            <mxPoint x="530" y="963.5" as="targetPoint" />
            <mxPoint as="offset" />
          </mxGeometry>
        </mxCell>
        <mxCell id="a0PMoFdgcxB-xL_lOZZJ-28" value="" style="html=1;points=[];perimeter=orthogonalPerimeter;fontFamily=Helvetica;fontSize=11;fontColor=default;" vertex="1" parent="1">
          <mxGeometry x="515" y="821" width="10" height="80" as="geometry" />
        </mxCell>
        <mxCell id="a0PMoFdgcxB-xL_lOZZJ-29" value="6. 新增用户" style="html=1;verticalAlign=bottom;endArrow=block;entryX=0;entryY=0;rounded=0;labelBackgroundColor=default;fontFamily=Helvetica;fontSize=11;fontColor=default;endSize=8;strokeColor=#000000;elbow=vertical;" edge="1" parent="1" source="a0PMoFdgcxB-xL_lOZZJ-14" target="a0PMoFdgcxB-xL_lOZZJ-28">
          <mxGeometry relative="1" as="geometry">
            <mxPoint x="445" y="821" as="sourcePoint" />
          </mxGeometry>
        </mxCell>
        <mxCell id="a0PMoFdgcxB-xL_lOZZJ-30" value="7. 请求添加用户" style="html=1;verticalAlign=bottom;endArrow=open;dashed=1;endSize=8;rounded=0;labelBackgroundColor=default;fontFamily=Helvetica;fontSize=11;fontColor=default;strokeColor=#000000;elbow=vertical;" edge="1" parent="1">
          <mxGeometry relative="1" as="geometry">
            <mxPoint x="220" y="861" as="targetPoint" />
            <mxPoint x="510" y="861" as="sourcePoint" />
          </mxGeometry>
        </mxCell>
        <mxCell id="a0PMoFdgcxB-xL_lOZZJ-31" value="" style="endArrow=none;dashed=1;html=1;rounded=0;shadow=1;labelBackgroundColor=default;fontFamily=Helvetica;fontSize=11;fontColor=default;endSize=8;strokeColor=#000000;elbow=vertical;" edge="1" parent="1">
          <mxGeometry width="50" height="50" relative="1" as="geometry">
            <mxPoint x="519.5" y="821" as="sourcePoint" />
            <mxPoint x="520" y="781" as="targetPoint" />
          </mxGeometry>
        </mxCell>
        <mxCell id="a0PMoFdgcxB-xL_lOZZJ-32" value="" style="points=[];perimeter=orthogonalPerimeter;spacingTop=0;spacing=1;verticalAlign=middle;horizontal=1;direction=west;labelPosition=center;verticalLabelPosition=middle;align=center;" vertex="1" parent="1">
          <mxGeometry x="202.5" y="835.5" width="15" height="115.5" as="geometry" />
        </mxCell>
        <mxCell id="a0PMoFdgcxB-xL_lOZZJ-33" value="" style="endArrow=none;dashed=1;html=1;rounded=0;shadow=1;labelBackgroundColor=default;fontFamily=Helvetica;fontSize=11;fontColor=default;endSize=8;strokeColor=#000000;elbow=vertical;entryX=0.5;entryY=-0.098;entryDx=0;entryDy=0;entryPerimeter=0;" edge="1" parent="1" source="a0PMoFdgcxB-xL_lOZZJ-32" target="a0PMoFdgcxB-xL_lOZZJ-23">
          <mxGeometry width="50" height="50" relative="1" as="geometry">
            <mxPoint x="370" y="831" as="sourcePoint" />
            <mxPoint x="200" y="751" as="targetPoint" />
          </mxGeometry>
        </mxCell>
        <mxCell id="a0PMoFdgcxB-xL_lOZZJ-34" value="" style="points=[];perimeter=orthogonalPerimeter;spacingTop=0;spacing=1;verticalAlign=middle;horizontal=1;direction=west;labelPosition=center;verticalLabelPosition=middle;align=center;" vertex="1" parent="1">
          <mxGeometry x="356.25" y="865.5" width="15" height="51" as="geometry" />
        </mxCell>
        <mxCell id="a0PMoFdgcxB-xL_lOZZJ-35" value="" style="endArrow=none;dashed=1;html=1;rounded=0;shadow=1;labelBackgroundColor=default;fontFamily=Helvetica;fontSize=11;fontColor=default;endSize=8;strokeColor=#000000;elbow=vertical;entryX=0.472;entryY=-0.007;entryDx=0;entryDy=0;entryPerimeter=0;" edge="1" parent="1" source="a0PMoFdgcxB-xL_lOZZJ-34" target="a0PMoFdgcxB-xL_lOZZJ-18">
          <mxGeometry width="50" height="50" relative="1" as="geometry">
            <mxPoint x="523.75" y="861" as="sourcePoint" />
            <mxPoint x="363.75" y="780.998" as="targetPoint" />
          </mxGeometry>
        </mxCell>
        <mxCell id="a0PMoFdgcxB-xL_lOZZJ-36" value="8. 添加用户" style="html=1;verticalAlign=bottom;endArrow=block;rounded=0;shadow=1;labelBackgroundColor=default;fontFamily=Helvetica;fontSize=11;fontColor=default;endSize=8;strokeColor=#000000;elbow=vertical;" edge="1" parent="1">
          <mxGeometry width="80" relative="1" as="geometry">
            <mxPoint x="219" y="881" as="sourcePoint" />
            <mxPoint x="359" y="881" as="targetPoint" />
          </mxGeometry>
        </mxCell>
        <mxCell id="a0PMoFdgcxB-xL_lOZZJ-37" value="9. 返回添加成功" style="html=1;verticalAlign=bottom;endArrow=open;dashed=1;endSize=8;rounded=0;shadow=1;labelBackgroundColor=default;fontFamily=Helvetica;fontSize=11;fontColor=default;strokeColor=#000000;elbow=vertical;" edge="1" parent="1">
          <mxGeometry relative="1" as="geometry">
            <mxPoint x="356.25" y="911" as="sourcePoint" />
            <mxPoint x="220" y="911" as="targetPoint" />
          </mxGeometry>
        </mxCell>
        <mxCell id="a0PMoFdgcxB-xL_lOZZJ-38" value="" style="html=1;points=[];perimeter=orthogonalPerimeter;fontFamily=Helvetica;fontSize=11;fontColor=default;" vertex="1" parent="1">
          <mxGeometry x="515" y="921" width="10" height="50" as="geometry" />
        </mxCell>
        <mxCell id="a0PMoFdgcxB-xL_lOZZJ-39" value="5.初始化页面" style="edgeStyle=orthogonalEdgeStyle;html=1;align=left;spacingLeft=2;endArrow=block;rounded=0;labelBackgroundColor=default;fontFamily=Helvetica;fontSize=11;fontColor=default;endSize=8;strokeColor=#000000;elbow=vertical;" edge="1" parent="1">
          <mxGeometry x="-0.0588" relative="1" as="geometry">
            <mxPoint x="525" y="731" as="sourcePoint" />
            <Array as="points">
              <mxPoint x="550" y="731" />
              <mxPoint x="550" y="766" />
              <mxPoint x="530" y="766" />
            </Array>
            <mxPoint x="530" y="766" as="targetPoint" />
            <mxPoint as="offset" />
          </mxGeometry>
        </mxCell>
        <mxCell id="a0PMoFdgcxB-xL_lOZZJ-40" value="10. 返回添加成功" style="html=1;verticalAlign=bottom;endArrow=block;rounded=0;shadow=1;labelBackgroundColor=default;fontFamily=Helvetica;fontSize=11;fontColor=default;endSize=8;strokeColor=#000000;elbow=vertical;" edge="1" parent="1">
          <mxGeometry width="80" relative="1" as="geometry">
            <mxPoint x="220" y="941" as="sourcePoint" />
            <mxPoint x="513.75" y="941" as="targetPoint" />
          </mxGeometry>
        </mxCell>
        <mxCell id="a0PMoFdgcxB-xL_lOZZJ-41" value="" style="endArrow=none;dashed=1;html=1;rounded=0;shadow=1;labelBackgroundColor=default;fontFamily=Helvetica;fontSize=11;fontColor=default;endSize=8;strokeColor=#000000;elbow=vertical;exitX=0.54;exitY=0;exitDx=0;exitDy=0;exitPerimeter=0;" edge="1" parent="1" source="a0PMoFdgcxB-xL_lOZZJ-38">
          <mxGeometry width="50" height="50" relative="1" as="geometry">
            <mxPoint x="470" y="951" as="sourcePoint" />
            <mxPoint x="520" y="901" as="targetPoint" />
          </mxGeometry>
        </mxCell>
      </root>
    </mxGraphModel>
  </diagram>
  <diagram id="07xsD-2m1GwCb2Bo819a" name="Page-6">
    <mxGraphModel dx="1278" dy="585" grid="1" gridSize="10" guides="1" tooltips="1" connect="1" arrows="1" fold="1" page="1" pageScale="1" pageWidth="827" pageHeight="1169" math="0" shadow="0">
      <root>
        <mxCell id="0" />
        <mxCell id="1" parent="0" />
        <mxCell id="E8O3JVJ1ZjBnd3Wi4ZV1-1" value="浏&#xa;&#xa;&#xa;&#xa;览&#xa;&#xa;&#xa;&#xa;&#xa;器" style="points=[];perimeter=orthogonalPerimeter;spacingTop=0;spacing=1;verticalAlign=middle;horizontal=1;direction=west;labelPosition=center;verticalLabelPosition=middle;align=center;" vertex="1" parent="1">
          <mxGeometry x="60" y="190" width="30" height="320" as="geometry" />
        </mxCell>
        <mxCell id="E8O3JVJ1ZjBnd3Wi4ZV1-2" value="用户" style="shape=umlLifeline;participant=umlActor;perimeter=lifelinePerimeter;whiteSpace=wrap;html=1;container=1;collapsible=0;recursiveResize=0;verticalAlign=top;spacingTop=36;outlineConnect=0;" vertex="1" parent="1">
          <mxGeometry x="60" y="90" width="30" height="100" as="geometry" />
        </mxCell>
        <mxCell id="E8O3JVJ1ZjBnd3Wi4ZV1-3" value="UserFileControl" style="shape=umlLifeline;perimeter=lifelinePerimeter;whiteSpace=wrap;html=1;container=1;collapsible=0;recursiveResize=0;outlineConnect=0;" vertex="1" parent="1">
          <mxGeometry x="160" y="100" width="100" height="100" as="geometry" />
        </mxCell>
        <mxCell id="E8O3JVJ1ZjBnd3Wi4ZV1-4" value="" style="points=[];perimeter=orthogonalPerimeter;spacingTop=0;spacing=1;verticalAlign=middle;horizontal=1;direction=west;labelPosition=center;verticalLabelPosition=middle;align=center;" vertex="1" parent="1">
          <mxGeometry x="202.5" y="200" width="15" height="70" as="geometry" />
        </mxCell>
        <mxCell id="E8O3JVJ1ZjBnd3Wi4ZV1-5" value="&lt;font style=&quot;vertical-align: inherit;&quot;&gt;&lt;font style=&quot;vertical-align: inherit;&quot;&gt;&lt;font style=&quot;vertical-align: inherit;&quot;&gt;&lt;font style=&quot;vertical-align: inherit;&quot;&gt;1. 点击审核&lt;/font&gt;&lt;/font&gt;&lt;/font&gt;&lt;/font&gt;" style="html=1;verticalAlign=bottom;endArrow=block;rounded=0;elbow=vertical;spacingTop=3;" edge="1" parent="1" target="E8O3JVJ1ZjBnd3Wi4ZV1-4">
          <mxGeometry x="-0.0722" y="10" width="80" relative="1" as="geometry">
            <mxPoint x="90" y="239.5" as="sourcePoint" />
            <mxPoint x="229.5" y="200" as="targetPoint" />
            <mxPoint y="1" as="offset" />
          </mxGeometry>
        </mxCell>
        <mxCell id="E8O3JVJ1ZjBnd3Wi4ZV1-6" value="&lt;font style=&quot;vertical-align: inherit;&quot;&gt;&lt;font style=&quot;vertical-align: inherit;&quot;&gt;&lt;font style=&quot;vertical-align: inherit;&quot;&gt;&lt;font style=&quot;vertical-align: inherit;&quot;&gt;UserFileService&lt;/font&gt;&lt;/font&gt;&lt;/font&gt;&lt;/font&gt;" style="shape=umlLifeline;perimeter=lifelinePerimeter;whiteSpace=wrap;html=1;container=1;collapsible=0;recursiveResize=0;outlineConnect=0;" vertex="1" parent="1">
          <mxGeometry x="314" y="100" width="100" height="100" as="geometry" />
        </mxCell>
        <mxCell id="E8O3JVJ1ZjBnd3Wi4ZV1-7" value="" style="points=[];perimeter=orthogonalPerimeter;spacingTop=0;spacing=1;verticalAlign=middle;horizontal=1;direction=west;labelPosition=center;verticalLabelPosition=middle;align=center;" vertex="1" parent="1">
          <mxGeometry x="358.5" y="200" width="11" height="100" as="geometry" />
        </mxCell>
        <mxCell id="E8O3JVJ1ZjBnd3Wi4ZV1-8" value="2. 获取文件Id" style="html=1;verticalAlign=bottom;endArrow=block;rounded=0;elbow=vertical;" edge="1" parent="1" source="E8O3JVJ1ZjBnd3Wi4ZV1-4" target="E8O3JVJ1ZjBnd3Wi4ZV1-7">
          <mxGeometry x="0.0484" width="80" relative="1" as="geometry">
            <mxPoint x="314" y="260" as="sourcePoint" />
            <mxPoint x="470" y="260" as="targetPoint" />
            <Array as="points">
              <mxPoint x="260" y="250" />
            </Array>
            <mxPoint as="offset" />
          </mxGeometry>
        </mxCell>
        <mxCell id="E8O3JVJ1ZjBnd3Wi4ZV1-9" value="UserFileMapper" style="shape=umlLifeline;perimeter=lifelinePerimeter;whiteSpace=wrap;html=1;container=1;collapsible=0;recursiveResize=0;outlineConnect=0;" vertex="1" parent="1">
          <mxGeometry x="470" y="100" width="100" height="140" as="geometry" />
        </mxCell>
        <mxCell id="E8O3JVJ1ZjBnd3Wi4ZV1-10" value="" style="points=[];perimeter=orthogonalPerimeter;spacingTop=0;spacing=1;verticalAlign=middle;horizontal=1;direction=west;labelPosition=center;verticalLabelPosition=middle;align=center;" vertex="1" parent="1">
          <mxGeometry x="512.5" y="240" width="15" height="110" as="geometry" />
        </mxCell>
        <mxCell id="E8O3JVJ1ZjBnd3Wi4ZV1-11" value="3. 调用对应的sql" style="html=1;verticalAlign=bottom;endArrow=block;rounded=0;labelBackgroundColor=default;fontFamily=Helvetica;fontSize=11;fontColor=default;endSize=8;strokeColor=#000000;shape=connector;elbow=vertical;" edge="1" parent="1">
          <mxGeometry width="80" relative="1" as="geometry">
            <mxPoint x="369.5" y="280" as="sourcePoint" />
            <mxPoint x="510" y="280" as="targetPoint" />
          </mxGeometry>
        </mxCell>
        <mxCell id="E8O3JVJ1ZjBnd3Wi4ZV1-12" value="4. 根据文件Id&lt;br&gt;在数据库中查找&lt;br&gt;相应信息并返回" style="edgeStyle=orthogonalEdgeStyle;html=1;align=left;spacingLeft=2;endArrow=block;rounded=0;labelBackgroundColor=default;fontFamily=Helvetica;fontSize=11;fontColor=default;endSize=8;strokeColor=#000000;shape=connector;elbow=vertical;exitX=0;exitY=0.636;exitDx=0;exitDy=0;exitPerimeter=0;entryX=0.007;entryY=0.176;entryDx=0;entryDy=0;entryPerimeter=0;" edge="1" parent="1" source="E8O3JVJ1ZjBnd3Wi4ZV1-10" target="E8O3JVJ1ZjBnd3Wi4ZV1-10">
          <mxGeometry relative="1" as="geometry">
            <mxPoint x="540" y="280" as="sourcePoint" />
            <Array as="points">
              <mxPoint x="585" y="280" />
              <mxPoint x="585" y="330" />
              <mxPoint x="550" y="330" />
            </Array>
            <mxPoint x="550" y="380" as="targetPoint" />
          </mxGeometry>
        </mxCell>
        <mxCell id="E8O3JVJ1ZjBnd3Wi4ZV1-13" value="5. 返回文件信息" style="html=1;verticalAlign=bottom;endArrow=open;dashed=1;endSize=8;rounded=0;labelBackgroundColor=default;fontFamily=Helvetica;fontSize=11;fontColor=default;strokeColor=#000000;shape=connector;elbow=vertical;entryX=0.027;entryY=0.628;entryDx=0;entryDy=0;entryPerimeter=0;" edge="1" parent="1" source="E8O3JVJ1ZjBnd3Wi4ZV1-10" target="E8O3JVJ1ZjBnd3Wi4ZV1-1">
          <mxGeometry relative="1" as="geometry">
            <mxPoint x="170" y="400" as="sourcePoint" />
            <mxPoint x="90" y="400" as="targetPoint" />
          </mxGeometry>
        </mxCell>
        <mxCell id="E8O3JVJ1ZjBnd3Wi4ZV1-14" value="" style="points=[];perimeter=orthogonalPerimeter;spacingTop=0;spacing=1;verticalAlign=middle;horizontal=1;direction=west;labelPosition=center;verticalLabelPosition=middle;align=center;" vertex="1" parent="1">
          <mxGeometry x="202.5" y="360" width="15" height="70" as="geometry" />
        </mxCell>
        <mxCell id="E8O3JVJ1ZjBnd3Wi4ZV1-15" value="" style="endArrow=none;dashed=1;html=1;rounded=0;shadow=0;labelBackgroundColor=default;fontFamily=Helvetica;fontSize=11;fontColor=default;endSize=8;strokeColor=#000000;elbow=vertical;entryX=0.5;entryY=-0.043;entryDx=0;entryDy=0;entryPerimeter=0;exitX=0.447;exitY=1.009;exitDx=0;exitDy=0;exitPerimeter=0;" edge="1" parent="1" source="E8O3JVJ1ZjBnd3Wi4ZV1-14" target="E8O3JVJ1ZjBnd3Wi4ZV1-4">
          <mxGeometry width="50" height="50" relative="1" as="geometry">
            <mxPoint x="200" y="330" as="sourcePoint" />
            <mxPoint x="250" y="280" as="targetPoint" />
          </mxGeometry>
        </mxCell>
        <mxCell id="E8O3JVJ1ZjBnd3Wi4ZV1-16" value="6. 审核文件" style="html=1;verticalAlign=bottom;endArrow=block;rounded=0;shadow=0;labelBackgroundColor=default;fontFamily=Helvetica;fontSize=11;fontColor=default;endSize=8;strokeColor=#000000;elbow=vertical;" edge="1" parent="1">
          <mxGeometry width="80" relative="1" as="geometry">
            <mxPoint x="90" y="380" as="sourcePoint" />
            <mxPoint x="200" y="380" as="targetPoint" />
          </mxGeometry>
        </mxCell>
        <mxCell id="E8O3JVJ1ZjBnd3Wi4ZV1-18" value="" style="points=[];perimeter=orthogonalPerimeter;spacingTop=0;spacing=1;verticalAlign=middle;horizontal=1;direction=west;labelPosition=center;verticalLabelPosition=middle;align=center;" vertex="1" parent="1">
          <mxGeometry x="512.5" y="370" width="15" height="110" as="geometry" />
        </mxCell>
        <mxCell id="E8O3JVJ1ZjBnd3Wi4ZV1-19" value="8. 根据文件Id&lt;br&gt;在数据库中修改&lt;br&gt;或者保存相应信&lt;br&gt;息并返回" style="edgeStyle=orthogonalEdgeStyle;html=1;align=left;spacingLeft=2;endArrow=block;rounded=0;labelBackgroundColor=default;fontFamily=Helvetica;fontSize=11;fontColor=default;endSize=8;strokeColor=#000000;shape=connector;elbow=vertical;exitX=0;exitY=0.636;exitDx=0;exitDy=0;exitPerimeter=0;entryX=0.007;entryY=0.176;entryDx=0;entryDy=0;entryPerimeter=0;" edge="1" parent="1" source="E8O3JVJ1ZjBnd3Wi4ZV1-18" target="E8O3JVJ1ZjBnd3Wi4ZV1-18">
          <mxGeometry relative="1" as="geometry">
            <mxPoint x="540" y="410" as="sourcePoint" />
            <Array as="points">
              <mxPoint x="585" y="410" />
              <mxPoint x="585" y="460" />
              <mxPoint x="550" y="460" />
            </Array>
            <mxPoint x="550" y="510" as="targetPoint" />
          </mxGeometry>
        </mxCell>
        <mxCell id="E8O3JVJ1ZjBnd3Wi4ZV1-20" value="" style="endArrow=none;dashed=1;html=1;rounded=0;shadow=0;labelBackgroundColor=default;fontFamily=Helvetica;fontSize=11;fontColor=default;endSize=8;strokeColor=#000000;elbow=vertical;entryX=0.367;entryY=-0.005;entryDx=0;entryDy=0;entryPerimeter=0;exitX=0.367;exitY=0.995;exitDx=0;exitDy=0;exitPerimeter=0;" edge="1" parent="1" source="E8O3JVJ1ZjBnd3Wi4ZV1-18" target="E8O3JVJ1ZjBnd3Wi4ZV1-10">
          <mxGeometry width="50" height="50" relative="1" as="geometry">
            <mxPoint x="470" y="410" as="sourcePoint" />
            <mxPoint x="520" y="360" as="targetPoint" />
          </mxGeometry>
        </mxCell>
        <mxCell id="E8O3JVJ1ZjBnd3Wi4ZV1-21" value="7. 调用审核文件的sql" style="html=1;verticalAlign=bottom;endArrow=block;rounded=0;shadow=0;labelBackgroundColor=default;fontFamily=Helvetica;fontSize=11;fontColor=default;endSize=8;strokeColor=#000000;elbow=vertical;" edge="1" parent="1">
          <mxGeometry width="80" relative="1" as="geometry">
            <mxPoint x="217.5" y="400" as="sourcePoint" />
            <mxPoint x="510" y="400" as="targetPoint" />
          </mxGeometry>
        </mxCell>
        <mxCell id="E8O3JVJ1ZjBnd3Wi4ZV1-22" value="9. 返回审核成功" style="html=1;verticalAlign=bottom;endArrow=open;dashed=1;endSize=8;rounded=0;shadow=0;labelBackgroundColor=default;fontFamily=Helvetica;fontSize=11;fontColor=default;strokeColor=#000000;elbow=vertical;" edge="1" parent="1" source="E8O3JVJ1ZjBnd3Wi4ZV1-18">
          <mxGeometry relative="1" as="geometry">
            <mxPoint x="170" y="470" as="sourcePoint" />
            <mxPoint x="90" y="470" as="targetPoint" />
          </mxGeometry>
        </mxCell>
        <mxCell id="4A_3O4KNvluFD2MxTVl--1" value="" style="ellipse;html=1;shape=startState;fillColor=#000000;strokeColor=#ff0000;" vertex="1" parent="1">
          <mxGeometry x="179.5" y="610" width="30" height="30" as="geometry" />
        </mxCell>
        <mxCell id="4A_3O4KNvluFD2MxTVl--2" value="" style="edgeStyle=orthogonalEdgeStyle;html=1;verticalAlign=bottom;endArrow=open;endSize=8;strokeColor=#ff0000;rounded=0;elbow=vertical;" edge="1" parent="1" source="4A_3O4KNvluFD2MxTVl--1">
          <mxGeometry relative="1" as="geometry">
            <mxPoint x="194.49999999999977" y="670" as="targetPoint" />
          </mxGeometry>
        </mxCell>
        <mxCell id="4A_3O4KNvluFD2MxTVl--3" value="选择文件" style="rounded=1;whiteSpace=wrap;html=1;arcSize=40;fontColor=#000000;fillColor=#ffffc0;strokeColor=#ff0000;" vertex="1" parent="1">
          <mxGeometry x="159.5" y="670" width="70" height="30" as="geometry" />
        </mxCell>
        <mxCell id="4A_3O4KNvluFD2MxTVl--4" value="" style="edgeStyle=orthogonalEdgeStyle;html=1;verticalAlign=bottom;endArrow=open;endSize=8;strokeColor=#ff0000;rounded=0;elbow=vertical;" edge="1" parent="1" source="4A_3O4KNvluFD2MxTVl--3">
          <mxGeometry relative="1" as="geometry">
            <mxPoint x="194.49999999999977" y="730" as="targetPoint" />
          </mxGeometry>
        </mxCell>
        <mxCell id="4A_3O4KNvluFD2MxTVl--22" value="yes" style="edgeStyle=none;rounded=0;orthogonalLoop=1;jettySize=auto;html=1;exitX=0.5;exitY=1;exitDx=0;exitDy=0;shadow=0;labelBackgroundColor=default;fontFamily=Helvetica;fontSize=11;fontColor=default;endArrow=open;endSize=8;strokeColor=#FF0000;elbow=vertical;" edge="1" parent="1" source="4A_3O4KNvluFD2MxTVl--5" target="4A_3O4KNvluFD2MxTVl--21">
          <mxGeometry relative="1" as="geometry" />
        </mxCell>
        <mxCell id="4A_3O4KNvluFD2MxTVl--5" value="是否审核" style="rhombus;whiteSpace=wrap;html=1;fillColor=#ffffc0;strokeColor=#ff0000;fontFamily=Helvetica;fontSize=11;fontColor=default;" vertex="1" parent="1">
          <mxGeometry x="154.5" y="730" width="80" height="40" as="geometry" />
        </mxCell>
        <mxCell id="4A_3O4KNvluFD2MxTVl--6" value="no" style="edgeStyle=orthogonalEdgeStyle;html=1;align=left;verticalAlign=bottom;endArrow=open;endSize=8;strokeColor=#ff0000;rounded=0;labelBackgroundColor=default;fontFamily=Helvetica;fontSize=11;fontColor=default;shape=connector;elbow=vertical;" edge="1" parent="1" source="4A_3O4KNvluFD2MxTVl--5">
          <mxGeometry x="-0.5385" relative="1" as="geometry">
            <mxPoint x="299.4999999999998" y="750" as="targetPoint" />
            <mxPoint as="offset" />
            <Array as="points">
              <mxPoint x="260" y="750" />
              <mxPoint x="260" y="750" />
            </Array>
          </mxGeometry>
        </mxCell>
        <mxCell id="4A_3O4KNvluFD2MxTVl--10" value="" style="edgeStyle=orthogonalEdgeStyle;html=1;verticalAlign=bottom;endArrow=open;endSize=8;strokeColor=#ff0000;rounded=0;elbow=vertical;entryX=1;entryY=0.5;entryDx=0;entryDy=0;exitX=0.5;exitY=0;exitDx=0;exitDy=0;" edge="1" parent="1" source="4A_3O4KNvluFD2MxTVl--11" target="4A_3O4KNvluFD2MxTVl--3">
          <mxGeometry relative="1" as="geometry">
            <mxPoint x="380.45" y="660.03" as="targetPoint" />
            <mxPoint x="299.50000000000006" y="709.97" as="sourcePoint" />
          </mxGeometry>
        </mxCell>
        <mxCell id="4A_3O4KNvluFD2MxTVl--11" value="审核不通过或者不审核" style="rounded=1;whiteSpace=wrap;html=1;arcSize=40;fontColor=#000000;fillColor=#ffffc0;strokeColor=#ff0000;" vertex="1" parent="1">
          <mxGeometry x="299.5" y="730" width="70" height="30" as="geometry" />
        </mxCell>
        <mxCell id="4A_3O4KNvluFD2MxTVl--16" style="edgeStyle=orthogonalEdgeStyle;shape=connector;rounded=0;orthogonalLoop=1;jettySize=auto;html=1;exitX=0.5;exitY=1;exitDx=0;exitDy=0;entryX=0.5;entryY=0;entryDx=0;entryDy=0;labelBackgroundColor=default;fontFamily=Helvetica;fontSize=11;fontColor=default;endArrow=open;endSize=8;strokeColor=#ff0000;elbow=vertical;" edge="1" parent="1" source="4A_3O4KNvluFD2MxTVl--17" target="4A_3O4KNvluFD2MxTVl--18">
          <mxGeometry relative="1" as="geometry" />
        </mxCell>
        <mxCell id="4A_3O4KNvluFD2MxTVl--17" value="回显首页" style="rounded=1;whiteSpace=wrap;html=1;arcSize=40;fontColor=#000000;fillColor=#ffffc0;strokeColor=#ff0000;" vertex="1" parent="1">
          <mxGeometry x="159.5" y="900" width="70" height="30" as="geometry" />
        </mxCell>
        <mxCell id="4A_3O4KNvluFD2MxTVl--18" value="" style="ellipse;html=1;shape=endState;fillColor=#000000;strokeColor=#ff0000;fontFamily=Helvetica;fontSize=11;fontColor=default;" vertex="1" parent="1">
          <mxGeometry x="179.5" y="980" width="30" height="30" as="geometry" />
        </mxCell>
        <mxCell id="4A_3O4KNvluFD2MxTVl--23" style="edgeStyle=none;rounded=0;orthogonalLoop=1;jettySize=auto;html=1;entryX=0.5;entryY=0;entryDx=0;entryDy=0;shadow=0;labelBackgroundColor=default;fontFamily=Helvetica;fontSize=11;fontColor=default;endArrow=open;endSize=8;strokeColor=#FF0000;elbow=vertical;" edge="1" parent="1" source="4A_3O4KNvluFD2MxTVl--21" target="4A_3O4KNvluFD2MxTVl--17">
          <mxGeometry relative="1" as="geometry" />
        </mxCell>
        <mxCell id="4A_3O4KNvluFD2MxTVl--21" value="审核通过" style="rounded=1;whiteSpace=wrap;html=1;arcSize=40;fontColor=#000000;fillColor=#ffffc0;strokeColor=#ff0000;" vertex="1" parent="1">
          <mxGeometry x="160" y="820" width="70" height="40" as="geometry" />
        </mxCell>
      </root>
    </mxGraphModel>
  </diagram>
  <diagram id="GvIfCSNbolqY_hAuLTPK" name="Page-7">
    <mxGraphModel dx="1278" dy="585" grid="1" gridSize="10" guides="1" tooltips="1" connect="1" arrows="1" fold="1" page="1" pageScale="1" pageWidth="827" pageHeight="1169" math="0" shadow="0">
      <root>
        <mxCell id="0" />
        <mxCell id="1" parent="0" />
        <mxCell id="qWdqYbiMlnWr78RCy4MJ-1" value="用户" style="shape=umlLifeline;participant=umlActor;perimeter=lifelinePerimeter;whiteSpace=wrap;html=1;container=1;collapsible=0;recursiveResize=0;verticalAlign=top;spacingTop=36;outlineConnect=0;" vertex="1" parent="1">
          <mxGeometry x="60" y="50" width="30" height="550" as="geometry" />
        </mxCell>
        <mxCell id="qWdqYbiMlnWr78RCy4MJ-2" value="个人中心" style="shape=umlLifeline;perimeter=lifelinePerimeter;whiteSpace=wrap;html=1;container=1;collapsible=0;recursiveResize=0;outlineConnect=0;" vertex="1" parent="1">
          <mxGeometry x="160" y="60" width="100" height="100" as="geometry" />
        </mxCell>
        <mxCell id="qWdqYbiMlnWr78RCy4MJ-3" value="&lt;font style=&quot;vertical-align: inherit;&quot;&gt;&lt;font style=&quot;vertical-align: inherit;&quot;&gt;&lt;font style=&quot;vertical-align: inherit;&quot;&gt;&lt;font style=&quot;vertical-align: inherit;&quot;&gt;1. 发送数据&lt;br&gt;初始化请求&lt;/font&gt;&lt;/font&gt;&lt;/font&gt;&lt;/font&gt;" style="html=1;verticalAlign=bottom;endArrow=block;rounded=0;elbow=vertical;spacingTop=3;" edge="1" parent="1" source="qWdqYbiMlnWr78RCy4MJ-1" target="qWdqYbiMlnWr78RCy4MJ-7">
          <mxGeometry x="-0.0722" y="10" width="80" relative="1" as="geometry">
            <mxPoint x="93.99000000000001" y="168.4000000000001" as="sourcePoint" />
            <mxPoint x="229.5" y="160" as="targetPoint" />
            <mxPoint y="1" as="offset" />
            <Array as="points">
              <mxPoint x="140" y="161" />
            </Array>
          </mxGeometry>
        </mxCell>
        <mxCell id="qWdqYbiMlnWr78RCy4MJ-4" value="UserController" style="shape=umlLifeline;perimeter=lifelinePerimeter;whiteSpace=wrap;html=1;container=1;collapsible=0;recursiveResize=0;outlineConnect=0;" vertex="1" parent="1">
          <mxGeometry x="314" y="60" width="100" height="100" as="geometry" />
        </mxCell>
        <mxCell id="qWdqYbiMlnWr78RCy4MJ-5" value="" style="points=[];perimeter=orthogonalPerimeter;spacingTop=0;spacing=1;verticalAlign=middle;horizontal=1;direction=west;labelPosition=center;verticalLabelPosition=middle;align=center;" vertex="1" parent="1">
          <mxGeometry x="356.75" y="160" width="14.5" height="91" as="geometry" />
        </mxCell>
        <mxCell id="qWdqYbiMlnWr78RCy4MJ-6" value="mysql数据库" style="shape=umlLifeline;perimeter=lifelinePerimeter;whiteSpace=wrap;html=1;container=1;collapsible=0;recursiveResize=0;outlineConnect=0;" vertex="1" parent="1">
          <mxGeometry x="470" y="60" width="100" height="171" as="geometry" />
        </mxCell>
        <mxCell id="qWdqYbiMlnWr78RCy4MJ-13" value="" style="html=1;points=[];perimeter=orthogonalPerimeter;fontFamily=Helvetica;fontSize=11;fontColor=default;" vertex="1" parent="qWdqYbiMlnWr78RCy4MJ-6">
          <mxGeometry x="45" y="101" width="10" height="70" as="geometry" />
        </mxCell>
        <mxCell id="qWdqYbiMlnWr78RCy4MJ-7" value="" style="points=[];perimeter=orthogonalPerimeter;spacingTop=0;spacing=1;verticalAlign=middle;horizontal=1;direction=west;labelPosition=center;verticalLabelPosition=middle;align=center;" vertex="1" parent="1">
          <mxGeometry x="202.5" y="160" width="15" height="31" as="geometry" />
        </mxCell>
        <mxCell id="qWdqYbiMlnWr78RCy4MJ-8" value="2. 获得当前用户&lt;br&gt;Id" style="html=1;verticalAlign=bottom;endArrow=block;rounded=0;labelBackgroundColor=default;fontFamily=Helvetica;fontSize=11;fontColor=default;endSize=8;strokeColor=#000000;elbow=vertical;" edge="1" parent="1" source="qWdqYbiMlnWr78RCy4MJ-7" target="qWdqYbiMlnWr78RCy4MJ-5">
          <mxGeometry width="80" relative="1" as="geometry">
            <mxPoint x="280" y="191" as="sourcePoint" />
            <mxPoint x="350" y="191" as="targetPoint" />
          </mxGeometry>
        </mxCell>
        <mxCell id="qWdqYbiMlnWr78RCy4MJ-9" value="" style="endArrow=none;dashed=1;html=1;rounded=0;labelBackgroundColor=default;fontFamily=Helvetica;fontSize=11;fontColor=default;endSize=8;strokeColor=#000000;elbow=vertical;" edge="1" parent="1">
          <mxGeometry width="50" height="50" relative="1" as="geometry">
            <mxPoint x="209.5" y="220.5" as="sourcePoint" />
            <mxPoint x="209.5" y="190.5" as="targetPoint" />
          </mxGeometry>
        </mxCell>
        <mxCell id="qWdqYbiMlnWr78RCy4MJ-10" value="" style="points=[];perimeter=orthogonalPerimeter;spacingTop=0;spacing=1;verticalAlign=middle;horizontal=1;direction=west;labelPosition=center;verticalLabelPosition=middle;align=center;" vertex="1" parent="1">
          <mxGeometry x="202.5" y="215" width="15" height="75" as="geometry" />
        </mxCell>
        <mxCell id="qWdqYbiMlnWr78RCy4MJ-11" value="4. 返回用户数据" style="html=1;verticalAlign=bottom;endArrow=open;dashed=1;endSize=8;rounded=0;labelBackgroundColor=default;fontFamily=Helvetica;fontSize=11;fontColor=default;strokeColor=#000000;elbow=vertical;entryX=-0.19;entryY=0.33;entryDx=0;entryDy=0;entryPerimeter=0;" edge="1" parent="1" target="qWdqYbiMlnWr78RCy4MJ-5">
          <mxGeometry x="-0.0779" y="1" relative="1" as="geometry">
            <mxPoint x="515" y="220" as="sourcePoint" />
            <mxPoint x="378.25" y="220" as="targetPoint" />
            <mxPoint as="offset" />
          </mxGeometry>
        </mxCell>
        <mxCell id="qWdqYbiMlnWr78RCy4MJ-14" value="14. 清空sessionStorge" style="edgeStyle=orthogonalEdgeStyle;html=1;align=left;spacingLeft=2;endArrow=block;rounded=0;labelBackgroundColor=default;fontFamily=Helvetica;fontSize=11;fontColor=default;endSize=8;strokeColor=#000000;elbow=vertical;" edge="1" parent="1">
          <mxGeometry x="-0.0588" relative="1" as="geometry">
            <mxPoint x="217.5" y="530" as="sourcePoint" />
            <Array as="points">
              <mxPoint x="242.5" y="530" />
              <mxPoint x="242.5" y="565" />
              <mxPoint x="222.5" y="565" />
            </Array>
            <mxPoint x="222.5" y="565" as="targetPoint" />
            <mxPoint as="offset" />
          </mxGeometry>
        </mxCell>
        <mxCell id="qWdqYbiMlnWr78RCy4MJ-15" value="" style="html=1;points=[];perimeter=orthogonalPerimeter;fontFamily=Helvetica;fontSize=11;fontColor=default;" vertex="1" parent="1">
          <mxGeometry x="515" y="343.25" width="10" height="166.75" as="geometry" />
        </mxCell>
        <mxCell id="qWdqYbiMlnWr78RCy4MJ-16" value="7.修改用户密码" style="html=1;verticalAlign=bottom;endArrow=block;rounded=0;labelBackgroundColor=default;fontFamily=Helvetica;fontSize=11;fontColor=default;endSize=8;strokeColor=#000000;elbow=vertical;" edge="1" parent="1" source="qWdqYbiMlnWr78RCy4MJ-1">
          <mxGeometry relative="1" as="geometry">
            <mxPoint x="445" y="341" as="sourcePoint" />
            <mxPoint x="200" y="340" as="targetPoint" />
            <Array as="points">
              <mxPoint x="200" y="340" />
            </Array>
          </mxGeometry>
        </mxCell>
        <mxCell id="qWdqYbiMlnWr78RCy4MJ-18" value="" style="endArrow=none;dashed=1;html=1;rounded=0;shadow=1;labelBackgroundColor=default;fontFamily=Helvetica;fontSize=11;fontColor=default;endSize=8;strokeColor=#000000;elbow=vertical;" edge="1" parent="1" target="qWdqYbiMlnWr78RCy4MJ-13">
          <mxGeometry width="50" height="50" relative="1" as="geometry">
            <mxPoint x="519.5" y="341" as="sourcePoint" />
            <mxPoint x="520" y="301" as="targetPoint" />
          </mxGeometry>
        </mxCell>
        <mxCell id="qWdqYbiMlnWr78RCy4MJ-19" value="" style="points=[];perimeter=orthogonalPerimeter;spacingTop=0;spacing=1;verticalAlign=middle;horizontal=1;direction=west;labelPosition=center;verticalLabelPosition=middle;align=center;" vertex="1" parent="1">
          <mxGeometry x="202.5" y="325.5" width="15" height="115.5" as="geometry" />
        </mxCell>
        <mxCell id="qWdqYbiMlnWr78RCy4MJ-20" value="" style="endArrow=none;dashed=1;html=1;rounded=0;shadow=1;labelBackgroundColor=default;fontFamily=Helvetica;fontSize=11;fontColor=default;endSize=8;strokeColor=#000000;elbow=vertical;entryX=0.553;entryY=0.003;entryDx=0;entryDy=0;entryPerimeter=0;" edge="1" parent="1" source="qWdqYbiMlnWr78RCy4MJ-19" target="qWdqYbiMlnWr78RCy4MJ-10">
          <mxGeometry width="50" height="50" relative="1" as="geometry">
            <mxPoint x="370" y="351" as="sourcePoint" />
            <mxPoint x="200" y="271" as="targetPoint" />
          </mxGeometry>
        </mxCell>
        <mxCell id="qWdqYbiMlnWr78RCy4MJ-21" value="" style="points=[];perimeter=orthogonalPerimeter;spacingTop=0;spacing=1;verticalAlign=middle;horizontal=1;direction=west;labelPosition=center;verticalLabelPosition=middle;align=center;" vertex="1" parent="1">
          <mxGeometry x="360" y="343.25" width="10" height="46.75" as="geometry" />
        </mxCell>
        <mxCell id="qWdqYbiMlnWr78RCy4MJ-22" value="" style="endArrow=none;dashed=1;html=1;rounded=0;shadow=1;labelBackgroundColor=default;fontFamily=Helvetica;fontSize=11;fontColor=default;endSize=8;strokeColor=#000000;elbow=vertical;entryX=0.472;entryY=-0.007;entryDx=0;entryDy=0;entryPerimeter=0;" edge="1" parent="1" source="qWdqYbiMlnWr78RCy4MJ-21" target="qWdqYbiMlnWr78RCy4MJ-5">
          <mxGeometry width="50" height="50" relative="1" as="geometry">
            <mxPoint x="523.75" y="381" as="sourcePoint" />
            <mxPoint x="363.75" y="300.99800000000005" as="targetPoint" />
          </mxGeometry>
        </mxCell>
        <mxCell id="qWdqYbiMlnWr78RCy4MJ-26" value="6.初始化页面" style="edgeStyle=orthogonalEdgeStyle;html=1;align=left;spacingLeft=2;endArrow=block;rounded=0;labelBackgroundColor=default;fontFamily=Helvetica;fontSize=11;fontColor=default;endSize=8;strokeColor=#000000;elbow=vertical;" edge="1" parent="1">
          <mxGeometry x="0.2647" y="-27" relative="1" as="geometry">
            <mxPoint x="202.5" y="259" as="sourcePoint" />
            <Array as="points">
              <mxPoint x="147.5" y="251" />
              <mxPoint x="147.5" y="286" />
            </Array>
            <mxPoint x="202.5" y="286" as="targetPoint" />
            <mxPoint x="-15" y="-4" as="offset" />
          </mxGeometry>
        </mxCell>
        <mxCell id="qWdqYbiMlnWr78RCy4MJ-29" value="3. 查询当前用户数据" style="html=1;verticalAlign=bottom;endArrow=block;rounded=0;shadow=0;labelBackgroundColor=default;fontFamily=Helvetica;fontSize=11;fontColor=default;endSize=8;strokeColor=#000000;elbow=vertical;" edge="1" parent="1" target="qWdqYbiMlnWr78RCy4MJ-6">
          <mxGeometry x="-0.0635" width="80" relative="1" as="geometry">
            <mxPoint x="370" y="190" as="sourcePoint" />
            <mxPoint x="450" y="190" as="targetPoint" />
            <mxPoint as="offset" />
          </mxGeometry>
        </mxCell>
        <mxCell id="qWdqYbiMlnWr78RCy4MJ-30" value="5. 用户数据返回页面" style="html=1;verticalAlign=bottom;endArrow=open;dashed=1;endSize=8;rounded=0;labelBackgroundColor=default;fontFamily=Helvetica;fontSize=11;fontColor=default;strokeColor=#000000;elbow=vertical;entryX=-0.19;entryY=0.33;entryDx=0;entryDy=0;entryPerimeter=0;" edge="1" parent="1">
          <mxGeometry x="-0.0238" relative="1" as="geometry">
            <mxPoint x="356.75" y="240" as="sourcePoint" />
            <mxPoint x="215.7550000000001" y="240.97000000000003" as="targetPoint" />
            <mxPoint as="offset" />
          </mxGeometry>
        </mxCell>
        <mxCell id="qWdqYbiMlnWr78RCy4MJ-32" value="8. 传递修改密码信息" style="html=1;verticalAlign=bottom;endArrow=block;rounded=0;shadow=0;labelBackgroundColor=default;fontFamily=Helvetica;fontSize=11;fontColor=default;endSize=8;strokeColor=#000000;elbow=vertical;" edge="1" parent="1" source="qWdqYbiMlnWr78RCy4MJ-19">
          <mxGeometry width="80" relative="1" as="geometry">
            <mxPoint x="226.75" y="360" as="sourcePoint" />
            <mxPoint x="356.75" y="360" as="targetPoint" />
          </mxGeometry>
        </mxCell>
        <mxCell id="qWdqYbiMlnWr78RCy4MJ-33" value="9. 验证修改密码信息" style="html=1;verticalAlign=bottom;endArrow=block;rounded=0;shadow=0;labelBackgroundColor=default;fontFamily=Helvetica;fontSize=11;fontColor=default;endSize=8;strokeColor=#000000;elbow=vertical;" edge="1" parent="1" target="qWdqYbiMlnWr78RCy4MJ-15">
          <mxGeometry width="80" relative="1" as="geometry">
            <mxPoint x="370" y="370" as="sourcePoint" />
            <mxPoint x="450" y="370" as="targetPoint" />
          </mxGeometry>
        </mxCell>
        <mxCell id="qWdqYbiMlnWr78RCy4MJ-36" value="10. 验证失败" style="html=1;verticalAlign=bottom;endArrow=open;dashed=1;endSize=8;rounded=0;shadow=0;labelBackgroundColor=default;fontFamily=Helvetica;fontSize=11;fontColor=default;strokeColor=#000000;elbow=vertical;" edge="1" parent="1">
          <mxGeometry relative="1" as="geometry">
            <mxPoint x="510" y="418" as="sourcePoint" />
            <mxPoint x="370" y="418" as="targetPoint" />
          </mxGeometry>
        </mxCell>
        <mxCell id="qWdqYbiMlnWr78RCy4MJ-37" value="11. 返回失败信息" style="html=1;verticalAlign=bottom;endArrow=open;dashed=1;endSize=8;rounded=0;shadow=0;labelBackgroundColor=default;fontFamily=Helvetica;fontSize=11;fontColor=default;strokeColor=#000000;elbow=vertical;" edge="1" parent="1">
          <mxGeometry relative="1" as="geometry">
            <mxPoint x="360" y="440" as="sourcePoint" />
            <mxPoint x="220" y="440" as="targetPoint" />
          </mxGeometry>
        </mxCell>
        <mxCell id="qWdqYbiMlnWr78RCy4MJ-38" value="" style="points=[];perimeter=orthogonalPerimeter;spacingTop=0;spacing=1;verticalAlign=middle;horizontal=1;direction=west;labelPosition=center;verticalLabelPosition=middle;align=center;" vertex="1" parent="1">
          <mxGeometry x="361.25" y="410" width="8.75" height="43.25" as="geometry" />
        </mxCell>
        <mxCell id="qWdqYbiMlnWr78RCy4MJ-39" value="" style="endArrow=none;dashed=1;html=1;rounded=0;shadow=0;labelBackgroundColor=default;fontFamily=Helvetica;fontSize=11;fontColor=default;endSize=8;strokeColor=#000000;elbow=vertical;entryX=0.4;entryY=-0.081;entryDx=0;entryDy=0;entryPerimeter=0;" edge="1" parent="1" source="qWdqYbiMlnWr78RCy4MJ-38" target="qWdqYbiMlnWr78RCy4MJ-21">
          <mxGeometry width="50" height="50" relative="1" as="geometry">
            <mxPoint x="390" y="450" as="sourcePoint" />
            <mxPoint x="365" y="400" as="targetPoint" />
          </mxGeometry>
        </mxCell>
        <mxCell id="qWdqYbiMlnWr78RCy4MJ-40" value="" style="endArrow=none;dashed=1;html=1;rounded=0;shadow=0;labelBackgroundColor=default;fontFamily=Helvetica;fontSize=11;fontColor=default;endSize=8;strokeColor=#000000;elbow=vertical;entryX=0.4;entryY=-0.081;entryDx=0;entryDy=0;entryPerimeter=0;" edge="1" parent="1">
          <mxGeometry width="50" height="50" relative="1" as="geometry">
            <mxPoint x="365.13" y="410" as="sourcePoint" />
            <mxPoint x="365.13" y="393.78675" as="targetPoint" />
          </mxGeometry>
        </mxCell>
        <mxCell id="qWdqYbiMlnWr78RCy4MJ-41" value="" style="points=[];perimeter=orthogonalPerimeter;spacingTop=0;spacing=1;verticalAlign=middle;horizontal=1;direction=west;labelPosition=center;verticalLabelPosition=middle;align=center;" vertex="1" parent="1">
          <mxGeometry x="361.25" y="469.46" width="8.75" height="43.25" as="geometry" />
        </mxCell>
        <mxCell id="qWdqYbiMlnWr78RCy4MJ-42" value="" style="endArrow=none;dashed=1;html=1;rounded=0;shadow=0;labelBackgroundColor=default;fontFamily=Helvetica;fontSize=11;fontColor=default;endSize=8;strokeColor=#000000;elbow=vertical;entryX=0.4;entryY=-0.081;entryDx=0;entryDy=0;entryPerimeter=0;" edge="1" parent="1">
          <mxGeometry width="50" height="50" relative="1" as="geometry">
            <mxPoint x="365.1300000000001" y="469.46" as="sourcePoint" />
            <mxPoint x="365.1300000000001" y="453.24674999999996" as="targetPoint" />
          </mxGeometry>
        </mxCell>
        <mxCell id="qWdqYbiMlnWr78RCy4MJ-43" value="12. 验证成功" style="html=1;verticalAlign=bottom;endArrow=open;dashed=1;endSize=8;rounded=0;shadow=0;labelBackgroundColor=default;fontFamily=Helvetica;fontSize=11;fontColor=default;strokeColor=#000000;elbow=vertical;entryX=-0.183;entryY=0.733;entryDx=0;entryDy=0;entryPerimeter=0;" edge="1" parent="1" target="qWdqYbiMlnWr78RCy4MJ-41">
          <mxGeometry relative="1" as="geometry">
            <mxPoint x="510" y="480" as="sourcePoint" />
            <mxPoint x="430" y="480" as="targetPoint" />
          </mxGeometry>
        </mxCell>
        <mxCell id="qWdqYbiMlnWr78RCy4MJ-44" value="" style="points=[];perimeter=orthogonalPerimeter;spacingTop=0;spacing=1;verticalAlign=middle;horizontal=1;direction=west;labelPosition=center;verticalLabelPosition=middle;align=center;" vertex="1" parent="1">
          <mxGeometry x="202.5" y="476.73" width="15" height="133.27" as="geometry" />
        </mxCell>
        <mxCell id="qWdqYbiMlnWr78RCy4MJ-45" value="" style="endArrow=none;dashed=1;html=1;rounded=0;shadow=1;labelBackgroundColor=default;fontFamily=Helvetica;fontSize=11;fontColor=default;endSize=8;strokeColor=#000000;elbow=vertical;entryX=0.553;entryY=0.003;entryDx=0;entryDy=0;entryPerimeter=0;" edge="1" parent="1" source="qWdqYbiMlnWr78RCy4MJ-44">
          <mxGeometry width="50" height="50" relative="1" as="geometry">
            <mxPoint x="370" y="502.23" as="sourcePoint" />
            <mxPoint x="209.20499999999993" y="441.005" as="targetPoint" />
          </mxGeometry>
        </mxCell>
        <mxCell id="qWdqYbiMlnWr78RCy4MJ-46" value="13. 返回成功信息" style="html=1;verticalAlign=bottom;endArrow=open;dashed=1;endSize=8;rounded=0;shadow=0;labelBackgroundColor=default;fontFamily=Helvetica;fontSize=11;fontColor=default;strokeColor=#000000;elbow=vertical;" edge="1" parent="1">
          <mxGeometry relative="1" as="geometry">
            <mxPoint x="360" y="500" as="sourcePoint" />
            <mxPoint x="220" y="500" as="targetPoint" />
          </mxGeometry>
        </mxCell>
        <mxCell id="qWdqYbiMlnWr78RCy4MJ-47" value="router" style="shape=umlLifeline;perimeter=lifelinePerimeter;whiteSpace=wrap;html=1;container=1;collapsible=0;recursiveResize=0;outlineConnect=0;" vertex="1" parent="1">
          <mxGeometry x="610" y="60" width="100" height="480" as="geometry" />
        </mxCell>
        <mxCell id="qWdqYbiMlnWr78RCy4MJ-49" value="15. 跳转到登录页面" style="html=1;verticalAlign=bottom;endArrow=block;rounded=0;shadow=0;labelBackgroundColor=default;fontFamily=Helvetica;fontSize=11;fontColor=default;endSize=8;strokeColor=#000000;elbow=vertical;entryX=0.14;entryY=1.028;entryDx=0;entryDy=0;entryPerimeter=0;" edge="1" parent="1" target="qWdqYbiMlnWr78RCy4MJ-48">
          <mxGeometry width="80" relative="1" as="geometry">
            <mxPoint x="217.5" y="590" as="sourcePoint" />
            <mxPoint x="297.5" y="590" as="targetPoint" />
          </mxGeometry>
        </mxCell>
        <mxCell id="qWdqYbiMlnWr78RCy4MJ-48" value="" style="html=1;points=[];perimeter=orthogonalPerimeter;fontFamily=Helvetica;fontSize=11;fontColor=default;" vertex="1" parent="1">
          <mxGeometry x="655" y="540" width="10" height="50" as="geometry" />
        </mxCell>
        <mxCell id="0y6AqHSTB8oAq_Ote2XU-1" value="" style="ellipse;html=1;shape=startState;fillColor=#000000;strokeColor=#ff0000;" vertex="1" parent="1">
          <mxGeometry x="151.25" y="760" width="30" height="30" as="geometry" />
        </mxCell>
        <mxCell id="0y6AqHSTB8oAq_Ote2XU-2" value="" style="edgeStyle=orthogonalEdgeStyle;html=1;verticalAlign=bottom;endArrow=open;endSize=8;strokeColor=#ff0000;rounded=0;elbow=vertical;entryX=0.5;entryY=0;entryDx=0;entryDy=0;" edge="1" parent="1" source="0y6AqHSTB8oAq_Ote2XU-1" target="0y6AqHSTB8oAq_Ote2XU-3">
          <mxGeometry relative="1" as="geometry">
            <mxPoint x="149.99999999999977" y="840" as="targetPoint" />
          </mxGeometry>
        </mxCell>
        <mxCell id="0y6AqHSTB8oAq_Ote2XU-17" style="edgeStyle=none;rounded=0;orthogonalLoop=1;jettySize=auto;html=1;exitX=0.25;exitY=1;exitDx=0;exitDy=0;entryX=0.25;entryY=0;entryDx=0;entryDy=0;shadow=0;labelBackgroundColor=default;fontFamily=Helvetica;fontSize=11;fontColor=default;endArrow=open;endSize=8;strokeColor=#FF0000;elbow=vertical;" edge="1" parent="1" source="0y6AqHSTB8oAq_Ote2XU-3" target="0y6AqHSTB8oAq_Ote2XU-16">
          <mxGeometry relative="1" as="geometry" />
        </mxCell>
        <mxCell id="0y6AqHSTB8oAq_Ote2XU-3" value="修改密码" style="rounded=1;whiteSpace=wrap;html=1;arcSize=40;fontColor=#000000;fillColor=#ffffc0;strokeColor=#ff0000;" vertex="1" parent="1">
          <mxGeometry x="108.75" y="840" width="115" height="70" as="geometry" />
        </mxCell>
        <mxCell id="0y6AqHSTB8oAq_Ote2XU-12" value="" style="ellipse;html=1;shape=endState;fillColor=#000000;strokeColor=#ff0000;fontFamily=Helvetica;fontSize=11;fontColor=default;" vertex="1" parent="1">
          <mxGeometry x="151.25" y="1320" width="30" height="30" as="geometry" />
        </mxCell>
        <mxCell id="0y6AqHSTB8oAq_Ote2XU-19" style="edgeStyle=none;rounded=0;orthogonalLoop=1;jettySize=auto;html=1;exitX=0.75;exitY=0;exitDx=0;exitDy=0;entryX=0.75;entryY=1;entryDx=0;entryDy=0;shadow=0;labelBackgroundColor=default;fontFamily=Helvetica;fontSize=11;fontColor=default;endArrow=open;endSize=8;strokeColor=#FF0000;elbow=vertical;" edge="1" parent="1" source="0y6AqHSTB8oAq_Ote2XU-16" target="0y6AqHSTB8oAq_Ote2XU-3">
          <mxGeometry relative="1" as="geometry" />
        </mxCell>
        <mxCell id="0y6AqHSTB8oAq_Ote2XU-23" style="edgeStyle=none;rounded=0;orthogonalLoop=1;jettySize=auto;html=1;exitX=0.5;exitY=1;exitDx=0;exitDy=0;entryX=0.5;entryY=0;entryDx=0;entryDy=0;shadow=0;labelBackgroundColor=default;fontFamily=Helvetica;fontSize=11;fontColor=default;endArrow=open;endSize=8;strokeColor=#FF0000;elbow=vertical;" edge="1" parent="1" source="0y6AqHSTB8oAq_Ote2XU-16" target="0y6AqHSTB8oAq_Ote2XU-22">
          <mxGeometry relative="1" as="geometry" />
        </mxCell>
        <mxCell id="0y6AqHSTB8oAq_Ote2XU-16" value="验证修改原密码和修改后的密码" style="rounded=1;whiteSpace=wrap;html=1;arcSize=40;fontColor=#000000;fillColor=#ffffc0;strokeColor=#ff0000;" vertex="1" parent="1">
          <mxGeometry x="108.75" y="970" width="115" height="70" as="geometry" />
        </mxCell>
        <mxCell id="0y6AqHSTB8oAq_Ote2XU-20" value="输入原密码、&lt;br&gt;修改后的密码" style="text;html=1;align=center;verticalAlign=middle;resizable=0;points=[];autosize=1;strokeColor=none;fillColor=none;fontSize=11;fontFamily=Helvetica;fontColor=default;" vertex="1" parent="1">
          <mxGeometry x="45" y="920" width="90" height="30" as="geometry" />
        </mxCell>
        <mxCell id="0y6AqHSTB8oAq_Ote2XU-21" value="验证失败" style="text;html=1;align=center;verticalAlign=middle;resizable=0;points=[];autosize=1;strokeColor=none;fillColor=none;fontSize=11;fontFamily=Helvetica;fontColor=default;" vertex="1" parent="1">
          <mxGeometry x="202.5" y="930" width="60" height="20" as="geometry" />
        </mxCell>
        <mxCell id="0y6AqHSTB8oAq_Ote2XU-27" style="edgeStyle=none;rounded=0;orthogonalLoop=1;jettySize=auto;html=1;exitX=0.5;exitY=1;exitDx=0;exitDy=0;entryX=0.5;entryY=0;entryDx=0;entryDy=0;shadow=0;labelBackgroundColor=default;fontFamily=Helvetica;fontSize=11;fontColor=default;endArrow=open;endSize=8;strokeColor=#FF0000;elbow=vertical;" edge="1" parent="1" source="0y6AqHSTB8oAq_Ote2XU-22" target="0y6AqHSTB8oAq_Ote2XU-25">
          <mxGeometry relative="1" as="geometry" />
        </mxCell>
        <mxCell id="0y6AqHSTB8oAq_Ote2XU-22" value="修改成功" style="rounded=1;whiteSpace=wrap;html=1;arcSize=40;fontColor=#000000;fillColor=#ffffc0;strokeColor=#ff0000;" vertex="1" parent="1">
          <mxGeometry x="108.75" y="1090" width="115" height="70" as="geometry" />
        </mxCell>
        <mxCell id="0y6AqHSTB8oAq_Ote2XU-24" value="验证通过" style="text;html=1;align=center;verticalAlign=middle;resizable=0;points=[];autosize=1;strokeColor=none;fillColor=none;fontSize=11;fontFamily=Helvetica;fontColor=default;" vertex="1" parent="1">
          <mxGeometry x="170" y="1060" width="60" height="20" as="geometry" />
        </mxCell>
        <mxCell id="0y6AqHSTB8oAq_Ote2XU-28" style="edgeStyle=none;rounded=0;orthogonalLoop=1;jettySize=auto;html=1;exitX=0.5;exitY=1;exitDx=0;exitDy=0;entryX=0.5;entryY=0;entryDx=0;entryDy=0;shadow=0;labelBackgroundColor=default;fontFamily=Helvetica;fontSize=11;fontColor=default;endArrow=open;endSize=8;strokeColor=#FF0000;elbow=vertical;" edge="1" parent="1" source="0y6AqHSTB8oAq_Ote2XU-25" target="0y6AqHSTB8oAq_Ote2XU-12">
          <mxGeometry relative="1" as="geometry" />
        </mxCell>
        <mxCell id="0y6AqHSTB8oAq_Ote2XU-25" value="返回登录" style="rounded=1;whiteSpace=wrap;html=1;arcSize=40;fontColor=#000000;fillColor=#ffffc0;strokeColor=#ff0000;" vertex="1" parent="1">
          <mxGeometry x="108.75" y="1200" width="115" height="70" as="geometry" />
        </mxCell>
      </root>
    </mxGraphModel>
  </diagram>
</mxfile>
